<mxfile host="65bd71144e">
    <diagram id="aK_MLw6c8FgepaFAwqpT" name="Pagina-1">
        <mxGraphModel dx="3158" dy="2778" grid="1" gridSize="10" guides="1" tooltips="1" connect="1" arrows="1" fold="1" page="1" pageScale="1" pageWidth="827" pageHeight="1169" math="0" shadow="0">
            <root>
                <mxCell id="0"/>
                <mxCell id="1" parent="0"/>
                <mxCell id="mPzOmOY4WDyL9PT-9BR5-1" value="Vaarroute" style="rounded=0;whiteSpace=wrap;html=1;" parent="1" vertex="1">
                    <mxGeometry x="145" y="-700" width="120" height="60" as="geometry"/>
                </mxCell>
                <mxCell id="mPzOmOY4WDyL9PT-9BR5-2" value="Passagier" style="rounded=0;whiteSpace=wrap;html=1;" parent="1" vertex="1">
                    <mxGeometry x="360" y="10" width="120" height="60" as="geometry"/>
                </mxCell>
                <mxCell id="mPzOmOY4WDyL9PT-9BR5-3" style="edgeStyle=none;shape=connector;rounded=0;orthogonalLoop=1;jettySize=auto;html=1;strokeColor=default;align=center;verticalAlign=middle;fontFamily=Helvetica;fontSize=11;fontColor=default;labelBackgroundColor=default;endArrow=none;" parent="1" source="mPzOmOY4WDyL9PT-9BR5-6" target="mPzOmOY4WDyL9PT-9BR5-105" edge="1">
                    <mxGeometry relative="1" as="geometry"/>
                </mxCell>
                <mxCell id="mPzOmOY4WDyL9PT-9BR5-4" value="" style="edgeStyle=none;shape=connector;rounded=0;orthogonalLoop=1;jettySize=auto;html=1;strokeColor=default;align=center;verticalAlign=middle;fontFamily=Helvetica;fontSize=11;fontColor=default;labelBackgroundColor=default;endArrow=none;" parent="1" source="mPzOmOY4WDyL9PT-9BR5-6" target="mPzOmOY4WDyL9PT-9BR5-19" edge="1">
                    <mxGeometry relative="1" as="geometry"/>
                </mxCell>
                <mxCell id="mPzOmOY4WDyL9PT-9BR5-5" style="edgeStyle=none;shape=connector;rounded=0;orthogonalLoop=1;jettySize=auto;html=1;strokeColor=default;align=center;verticalAlign=middle;fontFamily=Helvetica;fontSize=11;fontColor=default;labelBackgroundColor=default;endArrow=none;" parent="1" source="mPzOmOY4WDyL9PT-9BR5-6" target="mPzOmOY4WDyL9PT-9BR5-98" edge="1">
                    <mxGeometry relative="1" as="geometry"/>
                </mxCell>
                <mxCell id="mPzOmOY4WDyL9PT-9BR5-6" value="Hoofdboeker" style="whiteSpace=wrap;html=1;align=center;" parent="1" vertex="1">
                    <mxGeometry x="105" y="320" width="140" height="60" as="geometry"/>
                </mxCell>
                <mxCell id="mPzOmOY4WDyL9PT-9BR5-7" value="Vragen" style="ellipse;whiteSpace=wrap;html=1;align=center;" parent="1" vertex="1">
                    <mxGeometry x="5" y="270" width="100" height="40" as="geometry"/>
                </mxCell>
                <mxCell id="mPzOmOY4WDyL9PT-9BR5-8" value="Facturen" style="ellipse;whiteSpace=wrap;html=1;align=center;" parent="1" vertex="1">
                    <mxGeometry x="285" y="270" width="100" height="40" as="geometry"/>
                </mxCell>
                <mxCell id="mPzOmOY4WDyL9PT-9BR5-9" value="" style="endArrow=none;html=1;rounded=0;" parent="1" source="mPzOmOY4WDyL9PT-9BR5-6" target="mPzOmOY4WDyL9PT-9BR5-7" edge="1">
                    <mxGeometry width="50" height="50" relative="1" as="geometry">
                        <mxPoint x="435" y="110" as="sourcePoint"/>
                        <mxPoint x="485" y="60" as="targetPoint"/>
                    </mxGeometry>
                </mxCell>
                <mxCell id="mPzOmOY4WDyL9PT-9BR5-10" value="" style="endArrow=none;html=1;rounded=0;" parent="1" source="mPzOmOY4WDyL9PT-9BR5-6" target="mPzOmOY4WDyL9PT-9BR5-8" edge="1">
                    <mxGeometry width="50" height="50" relative="1" as="geometry">
                        <mxPoint x="435" y="110" as="sourcePoint"/>
                        <mxPoint x="485" y="60" as="targetPoint"/>
                    </mxGeometry>
                </mxCell>
                <mxCell id="mPzOmOY4WDyL9PT-9BR5-11" value="Extra kosten tijdens de reis" style="ellipse;whiteSpace=wrap;html=1;align=center;" parent="1" vertex="1">
                    <mxGeometry x="-15" y="390" width="100" height="40" as="geometry"/>
                </mxCell>
                <mxCell id="mPzOmOY4WDyL9PT-9BR5-12" value="" style="endArrow=none;html=1;rounded=0;" parent="1" source="mPzOmOY4WDyL9PT-9BR5-11" target="mPzOmOY4WDyL9PT-9BR5-6" edge="1">
                    <mxGeometry width="50" height="50" relative="1" as="geometry">
                        <mxPoint x="435" y="110" as="sourcePoint"/>
                        <mxPoint x="485" y="60" as="targetPoint"/>
                    </mxGeometry>
                </mxCell>
                <mxCell id="mPzOmOY4WDyL9PT-9BR5-13" value="Kamertypes" style="whiteSpace=wrap;html=1;align=center;" parent="1" vertex="1">
                    <mxGeometry x="-610" y="-80" width="110" height="60" as="geometry"/>
                </mxCell>
                <mxCell id="mPzOmOY4WDyL9PT-9BR5-14" value="Duurdere kamers" style="ellipse;whiteSpace=wrap;html=1;align=center;" parent="1" vertex="1">
                    <mxGeometry x="-730" y="-120" width="100" height="40" as="geometry"/>
                </mxCell>
                <mxCell id="mPzOmOY4WDyL9PT-9BR5-15" value="Kleingezinkamer" style="ellipse;whiteSpace=wrap;html=1;align=center;" parent="1" vertex="1">
                    <mxGeometry x="-480" y="-10" width="110" height="50" as="geometry"/>
                </mxCell>
                <mxCell id="mPzOmOY4WDyL9PT-9BR5-16" value="Tweepersoonskamer" style="ellipse;whiteSpace=wrap;html=1;align=center;" parent="1" vertex="1">
                    <mxGeometry x="-480" y="-120" width="110" height="40" as="geometry"/>
                </mxCell>
                <mxCell id="mPzOmOY4WDyL9PT-9BR5-17" style="edgeStyle=none;shape=connector;rounded=0;orthogonalLoop=1;jettySize=auto;html=1;strokeColor=default;align=center;verticalAlign=middle;fontFamily=Helvetica;fontSize=11;fontColor=default;labelBackgroundColor=default;endArrow=none;" parent="1" source="mPzOmOY4WDyL9PT-9BR5-18" target="mPzOmOY4WDyL9PT-9BR5-1" edge="1">
                    <mxGeometry relative="1" as="geometry"/>
                </mxCell>
                <mxCell id="mPzOmOY4WDyL9PT-9BR5-18" value="Diepte&lt;span style=&quot;color: rgba(0, 0, 0, 0); font-family: monospace; font-size: 0px; text-align: start; text-wrap-mode: nowrap;&quot;&gt;%3CmxGraphModel%3E%3Croot%3E%3CmxCell%20id%3D%220%22%2F%3E%3CmxCell%20id%3D%221%22%20parent%3D%220%22%2F%3E%3CmxCell%20id%3D%222%22%20value%3D%22Vertrekdatum%22%20style%3D%22ellipse%3BwhiteSpace%3Dwrap%3Bhtml%3D1%3Balign%3Dcenter%3Bdirection%3Dwest%3B%22%20vertex%3D%221%22%20parent%3D%221%22%3E%3CmxGeometry%20x%3D%22615%22%20y%3D%22-110%22%20width%3D%22100%22%20height%3D%2240%22%20as%3D%22geometry%22%2F%3E%3C%2FmxCell%3E%3C%2Froot%3E%3C%2FmxGraphModel%3E&lt;/span&gt;" style="ellipse;whiteSpace=wrap;html=1;align=center;" parent="1" vertex="1">
                    <mxGeometry x="120" y="-830" width="100" height="40" as="geometry"/>
                </mxCell>
                <mxCell id="mPzOmOY4WDyL9PT-9BR5-19" value="Prijs" style="ellipse;whiteSpace=wrap;html=1;align=center;" parent="1" vertex="1">
                    <mxGeometry x="275" y="360" width="100" height="40" as="geometry"/>
                </mxCell>
                <mxCell id="mPzOmOY4WDyL9PT-9BR5-20" value="Aantal passagiers" style="ellipse;whiteSpace=wrap;html=1;align=center;" parent="1" vertex="1">
                    <mxGeometry x="145" y="410" width="100" height="40" as="geometry"/>
                </mxCell>
                <mxCell id="mPzOmOY4WDyL9PT-9BR5-21" value="Grootgezinkamer" style="ellipse;whiteSpace=wrap;html=1;align=center;" parent="1" vertex="1">
                    <mxGeometry x="-610" y="30" width="110" height="40" as="geometry"/>
                </mxCell>
                <mxCell id="mPzOmOY4WDyL9PT-9BR5-22" value="" style="endArrow=none;html=1;rounded=0;" parent="1" source="mPzOmOY4WDyL9PT-9BR5-14" target="mPzOmOY4WDyL9PT-9BR5-13" edge="1">
                    <mxGeometry width="50" height="50" relative="1" as="geometry">
                        <mxPoint x="-790" y="-160" as="sourcePoint"/>
                        <mxPoint x="-740" y="-210" as="targetPoint"/>
                    </mxGeometry>
                </mxCell>
                <mxCell id="mPzOmOY4WDyL9PT-9BR5-23" value="" style="endArrow=none;html=1;rounded=0;" parent="1" source="mPzOmOY4WDyL9PT-9BR5-13" target="mPzOmOY4WDyL9PT-9BR5-16" edge="1">
                    <mxGeometry width="50" height="50" relative="1" as="geometry">
                        <mxPoint x="-790" y="-160" as="sourcePoint"/>
                        <mxPoint x="-740" y="-210" as="targetPoint"/>
                    </mxGeometry>
                </mxCell>
                <mxCell id="mPzOmOY4WDyL9PT-9BR5-24" value="" style="endArrow=none;html=1;rounded=0;" parent="1" source="mPzOmOY4WDyL9PT-9BR5-13" target="mPzOmOY4WDyL9PT-9BR5-15" edge="1">
                    <mxGeometry width="50" height="50" relative="1" as="geometry">
                        <mxPoint x="-490" y="-10" as="sourcePoint"/>
                        <mxPoint x="-740" y="-210" as="targetPoint"/>
                    </mxGeometry>
                </mxCell>
                <mxCell id="mPzOmOY4WDyL9PT-9BR5-25" value="" style="endArrow=none;html=1;rounded=0;" parent="1" source="mPzOmOY4WDyL9PT-9BR5-21" target="mPzOmOY4WDyL9PT-9BR5-13" edge="1">
                    <mxGeometry width="50" height="50" relative="1" as="geometry">
                        <mxPoint x="-790" y="-160" as="sourcePoint"/>
                        <mxPoint x="-740" y="-210" as="targetPoint"/>
                    </mxGeometry>
                </mxCell>
                <mxCell id="mPzOmOY4WDyL9PT-9BR5-26" value="Havens" style="ellipse;whiteSpace=wrap;html=1;align=center;" parent="1" vertex="1">
                    <mxGeometry x="245" y="-590" width="100" height="40" as="geometry"/>
                </mxCell>
                <mxCell id="mPzOmOY4WDyL9PT-9BR5-27" value="Geboortedatum" style="ellipse;whiteSpace=wrap;html=1;align=center;" parent="1" vertex="1">
                    <mxGeometry x="310" y="-50" width="100" height="40" as="geometry"/>
                </mxCell>
                <mxCell id="mPzOmOY4WDyL9PT-9BR5-28" value="Nationaliteit" style="ellipse;whiteSpace=wrap;html=1;align=center;" parent="1" vertex="1">
                    <mxGeometry x="235" y="80" width="100" height="40" as="geometry"/>
                </mxCell>
                <mxCell id="mPzOmOY4WDyL9PT-9BR5-29" value="Naam" style="ellipse;whiteSpace=wrap;html=1;align=center;" parent="1" vertex="1">
                    <mxGeometry x="240" width="100" height="40" as="geometry"/>
                </mxCell>
                <mxCell id="mPzOmOY4WDyL9PT-9BR5-30" value="&lt;u&gt;Telefoonnummer&lt;/u&gt;" style="ellipse;whiteSpace=wrap;html=1;align=center;" parent="1" vertex="1">
                    <mxGeometry x="425" y="-50" width="100" height="40" as="geometry"/>
                </mxCell>
                <mxCell id="mPzOmOY4WDyL9PT-9BR5-31" value="" style="endArrow=none;html=1;rounded=0;" parent="1" source="mPzOmOY4WDyL9PT-9BR5-2" target="mPzOmOY4WDyL9PT-9BR5-30" edge="1">
                    <mxGeometry width="50" height="50" relative="1" as="geometry">
                        <mxPoint x="370" y="164" as="sourcePoint"/>
                        <mxPoint x="406" y="150" as="targetPoint"/>
                    </mxGeometry>
                </mxCell>
                <mxCell id="mPzOmOY4WDyL9PT-9BR5-32" value="" style="endArrow=none;html=1;rounded=0;" parent="1" source="mPzOmOY4WDyL9PT-9BR5-2" target="mPzOmOY4WDyL9PT-9BR5-28" edge="1">
                    <mxGeometry width="50" height="50" relative="1" as="geometry">
                        <mxPoint x="380" y="174" as="sourcePoint"/>
                        <mxPoint x="416" y="160" as="targetPoint"/>
                    </mxGeometry>
                </mxCell>
                <mxCell id="mPzOmOY4WDyL9PT-9BR5-33" value="" style="endArrow=none;html=1;rounded=0;" parent="1" source="mPzOmOY4WDyL9PT-9BR5-2" target="mPzOmOY4WDyL9PT-9BR5-29" edge="1">
                    <mxGeometry width="50" height="50" relative="1" as="geometry">
                        <mxPoint x="390" y="184" as="sourcePoint"/>
                        <mxPoint x="426" y="170" as="targetPoint"/>
                    </mxGeometry>
                </mxCell>
                <mxCell id="mPzOmOY4WDyL9PT-9BR5-34" value="" style="endArrow=none;html=1;rounded=0;" parent="1" source="mPzOmOY4WDyL9PT-9BR5-27" target="mPzOmOY4WDyL9PT-9BR5-2" edge="1">
                    <mxGeometry width="50" height="50" relative="1" as="geometry">
                        <mxPoint x="400" y="194" as="sourcePoint"/>
                        <mxPoint x="436" y="180" as="targetPoint"/>
                    </mxGeometry>
                </mxCell>
                <mxCell id="mPzOmOY4WDyL9PT-9BR5-35" value="" style="endArrow=none;html=1;rounded=0;" parent="1" source="mPzOmOY4WDyL9PT-9BR5-6" target="mPzOmOY4WDyL9PT-9BR5-20" edge="1">
                    <mxGeometry width="50" height="50" relative="1" as="geometry">
                        <mxPoint x="77" y="405" as="sourcePoint"/>
                        <mxPoint x="131" y="380" as="targetPoint"/>
                    </mxGeometry>
                </mxCell>
                <mxCell id="mPzOmOY4WDyL9PT-9BR5-36" value="" style="endArrow=none;html=1;rounded=0;" parent="1" source="mPzOmOY4WDyL9PT-9BR5-19" target="mPzOmOY4WDyL9PT-9BR5-6" edge="1">
                    <mxGeometry width="50" height="50" relative="1" as="geometry">
                        <mxPoint x="87" y="415" as="sourcePoint"/>
                        <mxPoint x="141" y="390" as="targetPoint"/>
                    </mxGeometry>
                </mxCell>
                <mxCell id="mPzOmOY4WDyL9PT-9BR5-37" value="Cruisereis" style="rounded=0;whiteSpace=wrap;html=1;" parent="1" vertex="1">
                    <mxGeometry x="135" y="-275" width="120" height="60" as="geometry"/>
                </mxCell>
                <mxCell id="mPzOmOY4WDyL9PT-9BR5-38" value="aankomstdatum" style="ellipse;whiteSpace=wrap;html=1;align=center;direction=west;" parent="1" vertex="1">
                    <mxGeometry x="435" y="-290" width="100" height="40" as="geometry"/>
                </mxCell>
                <mxCell id="mPzOmOY4WDyL9PT-9BR5-39" value="Naam" style="ellipse;whiteSpace=wrap;html=1;align=center;direction=west;" parent="1" vertex="1">
                    <mxGeometry x="355" y="-340" width="100" height="40" as="geometry"/>
                </mxCell>
                <mxCell id="mPzOmOY4WDyL9PT-9BR5-40" value="&lt;u&gt;Cruise-ID&lt;/u&gt;" style="ellipse;whiteSpace=wrap;html=1;align=center;direction=west;" parent="1" vertex="1">
                    <mxGeometry x="310" y="-380" width="100" height="40" as="geometry"/>
                </mxCell>
                <mxCell id="mPzOmOY4WDyL9PT-9BR5-41" value="Startdatum" style="ellipse;whiteSpace=wrap;html=1;align=center;direction=west;" parent="1" vertex="1">
                    <mxGeometry x="435" y="-220" width="100" height="40" as="geometry"/>
                </mxCell>
                <mxCell id="mPzOmOY4WDyL9PT-9BR5-42" value="Schip" style="ellipse;whiteSpace=wrap;html=1;align=center;direction=west;" parent="1" vertex="1">
                    <mxGeometry x="285" y="-180" width="100" height="40" as="geometry"/>
                </mxCell>
                <mxCell id="mPzOmOY4WDyL9PT-9BR5-43" value="Locatie" style="ellipse;whiteSpace=wrap;html=1;align=center;" parent="1" vertex="1">
                    <mxGeometry x="265" y="-780" width="100" height="40" as="geometry"/>
                </mxCell>
                <mxCell id="mPzOmOY4WDyL9PT-9BR5-44" style="edgeStyle=none;shape=connector;rounded=0;orthogonalLoop=1;jettySize=auto;html=1;entryX=0;entryY=0.25;entryDx=0;entryDy=0;strokeColor=default;align=center;verticalAlign=middle;fontFamily=Helvetica;fontSize=11;fontColor=default;labelBackgroundColor=default;endArrow=none;" parent="1" source="mPzOmOY4WDyL9PT-9BR5-45" target="mPzOmOY4WDyL9PT-9BR5-1" edge="1">
                    <mxGeometry relative="1" as="geometry"/>
                </mxCell>
                <mxCell id="mPzOmOY4WDyL9PT-9BR5-45" value="Naam" style="ellipse;whiteSpace=wrap;html=1;align=center;" parent="1" vertex="1">
                    <mxGeometry x="20" y="-760" width="100" height="40" as="geometry"/>
                </mxCell>
                <mxCell id="mPzOmOY4WDyL9PT-9BR5-46" value="Cruiseschip" style="rounded=0;whiteSpace=wrap;html=1;direction=west;" parent="1" vertex="1">
                    <mxGeometry x="-305" y="-275" width="120" height="60" as="geometry"/>
                </mxCell>
                <mxCell id="mPzOmOY4WDyL9PT-9BR5-47" value="Diepgang" style="ellipse;whiteSpace=wrap;html=1;align=center;direction=west;" parent="1" vertex="1">
                    <mxGeometry x="-485" y="-250" width="100" height="40" as="geometry"/>
                </mxCell>
                <mxCell id="mPzOmOY4WDyL9PT-9BR5-48" value="Aantal kamers" style="ellipse;whiteSpace=wrap;html=1;align=center;direction=west;" parent="1" vertex="1">
                    <mxGeometry x="-485" y="-300" width="100" height="40" as="geometry"/>
                </mxCell>
                <mxCell id="mPzOmOY4WDyL9PT-9BR5-49" value="Maximum capaciteit" style="ellipse;whiteSpace=wrap;html=1;align=center;direction=west;" parent="1" vertex="1">
                    <mxGeometry x="-425" y="-200" width="100" height="40" as="geometry"/>
                </mxCell>
                <mxCell id="mPzOmOY4WDyL9PT-9BR5-50" value="Bouwjaar" style="ellipse;whiteSpace=wrap;html=1;align=center;direction=west;" parent="1" vertex="1">
                    <mxGeometry x="-375" y="-390" width="100" height="40" as="geometry"/>
                </mxCell>
                <mxCell id="mPzOmOY4WDyL9PT-9BR5-51" value="Naam" style="ellipse;whiteSpace=wrap;html=1;align=center;direction=west;" parent="1" vertex="1">
                    <mxGeometry x="-405" y="-340" width="100" height="40" as="geometry"/>
                </mxCell>
                <mxCell id="mPzOmOY4WDyL9PT-9BR5-52" value="" style="endArrow=none;html=1;rounded=0;" parent="1" source="mPzOmOY4WDyL9PT-9BR5-46" target="mPzOmOY4WDyL9PT-9BR5-48" edge="1">
                    <mxGeometry width="50" height="50" relative="1" as="geometry">
                        <mxPoint x="-555" y="-180" as="sourcePoint"/>
                        <mxPoint x="-505" y="-230" as="targetPoint"/>
                    </mxGeometry>
                </mxCell>
                <mxCell id="mPzOmOY4WDyL9PT-9BR5-53" value="" style="endArrow=none;html=1;rounded=0;" parent="1" source="mPzOmOY4WDyL9PT-9BR5-51" target="mPzOmOY4WDyL9PT-9BR5-46" edge="1">
                    <mxGeometry width="50" height="50" relative="1" as="geometry">
                        <mxPoint x="-545" y="-170" as="sourcePoint"/>
                        <mxPoint x="-495" y="-220" as="targetPoint"/>
                    </mxGeometry>
                </mxCell>
                <mxCell id="mPzOmOY4WDyL9PT-9BR5-54" value="" style="endArrow=none;html=1;rounded=0;" parent="1" source="mPzOmOY4WDyL9PT-9BR5-46" target="mPzOmOY4WDyL9PT-9BR5-47" edge="1">
                    <mxGeometry width="50" height="50" relative="1" as="geometry">
                        <mxPoint x="-525" y="-150" as="sourcePoint"/>
                        <mxPoint x="-475" y="-200" as="targetPoint"/>
                    </mxGeometry>
                </mxCell>
                <mxCell id="mPzOmOY4WDyL9PT-9BR5-55" value="" style="endArrow=none;html=1;rounded=0;" parent="1" source="mPzOmOY4WDyL9PT-9BR5-46" target="mPzOmOY4WDyL9PT-9BR5-49" edge="1">
                    <mxGeometry width="50" height="50" relative="1" as="geometry">
                        <mxPoint x="-515" y="-140" as="sourcePoint"/>
                        <mxPoint x="-465" y="-190" as="targetPoint"/>
                    </mxGeometry>
                </mxCell>
                <mxCell id="mPzOmOY4WDyL9PT-9BR5-56" value="" style="endArrow=none;html=1;rounded=0;" parent="1" source="mPzOmOY4WDyL9PT-9BR5-50" target="mPzOmOY4WDyL9PT-9BR5-46" edge="1">
                    <mxGeometry width="50" height="50" relative="1" as="geometry">
                        <mxPoint x="-505" y="-130" as="sourcePoint"/>
                        <mxPoint x="-455" y="-180" as="targetPoint"/>
                    </mxGeometry>
                </mxCell>
                <mxCell id="mPzOmOY4WDyL9PT-9BR5-57" value="&lt;u&gt;Schip-ID&lt;/u&gt;" style="ellipse;whiteSpace=wrap;html=1;align=center;direction=west;" parent="1" vertex="1">
                    <mxGeometry x="-285" y="-340" width="100" height="40" as="geometry"/>
                </mxCell>
                <mxCell id="mPzOmOY4WDyL9PT-9BR5-58" value="" style="endArrow=none;html=1;rounded=0;" parent="1" source="mPzOmOY4WDyL9PT-9BR5-57" target="mPzOmOY4WDyL9PT-9BR5-46" edge="1">
                    <mxGeometry width="50" height="50" relative="1" as="geometry">
                        <mxPoint x="-248" y="-290" as="sourcePoint"/>
                        <mxPoint x="-251" y="-270" as="targetPoint"/>
                    </mxGeometry>
                </mxCell>
                <mxCell id="mPzOmOY4WDyL9PT-9BR5-59" value="" style="endArrow=none;html=1;rounded=0;" parent="1" source="mPzOmOY4WDyL9PT-9BR5-37" target="mPzOmOY4WDyL9PT-9BR5-42" edge="1">
                    <mxGeometry width="50" height="50" relative="1" as="geometry">
                        <mxPoint x="212" y="-207" as="sourcePoint"/>
                        <mxPoint x="175" y="-190" as="targetPoint"/>
                    </mxGeometry>
                </mxCell>
                <mxCell id="mPzOmOY4WDyL9PT-9BR5-60" value="" style="endArrow=none;html=1;rounded=0;" parent="1" source="mPzOmOY4WDyL9PT-9BR5-37" target="mPzOmOY4WDyL9PT-9BR5-38" edge="1">
                    <mxGeometry width="50" height="50" relative="1" as="geometry">
                        <mxPoint x="242" y="-177" as="sourcePoint"/>
                        <mxPoint x="205" y="-160" as="targetPoint"/>
                    </mxGeometry>
                </mxCell>
                <mxCell id="mPzOmOY4WDyL9PT-9BR5-61" value="" style="endArrow=none;html=1;rounded=0;" parent="1" source="mPzOmOY4WDyL9PT-9BR5-41" target="mPzOmOY4WDyL9PT-9BR5-37" edge="1">
                    <mxGeometry width="50" height="50" relative="1" as="geometry">
                        <mxPoint x="252" y="-167" as="sourcePoint"/>
                        <mxPoint x="215" y="-150" as="targetPoint"/>
                    </mxGeometry>
                </mxCell>
                <mxCell id="mPzOmOY4WDyL9PT-9BR5-62" value="" style="endArrow=none;html=1;rounded=0;" parent="1" source="mPzOmOY4WDyL9PT-9BR5-39" target="mPzOmOY4WDyL9PT-9BR5-37" edge="1">
                    <mxGeometry width="50" height="50" relative="1" as="geometry">
                        <mxPoint x="380" y="-230" as="sourcePoint"/>
                        <mxPoint x="410" y="-230" as="targetPoint"/>
                    </mxGeometry>
                </mxCell>
                <mxCell id="mPzOmOY4WDyL9PT-9BR5-63" value="" style="endArrow=none;html=1;rounded=0;" parent="1" source="mPzOmOY4WDyL9PT-9BR5-40" target="mPzOmOY4WDyL9PT-9BR5-37" edge="1">
                    <mxGeometry width="50" height="50" relative="1" as="geometry">
                        <mxPoint x="390" y="-220" as="sourcePoint"/>
                        <mxPoint x="420" y="-220" as="targetPoint"/>
                    </mxGeometry>
                </mxCell>
                <mxCell id="mPzOmOY4WDyL9PT-9BR5-64" value="Vaart" style="rhombus;whiteSpace=wrap;html=1;" parent="1" vertex="1">
                    <mxGeometry x="-85" y="-280" width="120" height="70" as="geometry"/>
                </mxCell>
                <mxCell id="mPzOmOY4WDyL9PT-9BR5-65" value="" style="endArrow=none;html=1;rounded=0;" parent="1" source="mPzOmOY4WDyL9PT-9BR5-46" target="mPzOmOY4WDyL9PT-9BR5-64" edge="1">
                    <mxGeometry width="50" height="50" relative="1" as="geometry">
                        <mxPoint x="75" y="-220" as="sourcePoint"/>
                        <mxPoint x="125" y="-270" as="targetPoint"/>
                    </mxGeometry>
                </mxCell>
                <mxCell id="mPzOmOY4WDyL9PT-9BR5-66" value="" style="endArrow=none;html=1;rounded=0;" parent="1" source="mPzOmOY4WDyL9PT-9BR5-37" target="mPzOmOY4WDyL9PT-9BR5-64" edge="1">
                    <mxGeometry width="50" height="50" relative="1" as="geometry">
                        <mxPoint x="-195" y="-239" as="sourcePoint"/>
                        <mxPoint x="-63" y="-236" as="targetPoint"/>
                    </mxGeometry>
                </mxCell>
                <mxCell id="mPzOmOY4WDyL9PT-9BR5-67" style="edgeStyle=none;shape=connector;rounded=0;orthogonalLoop=1;jettySize=auto;html=1;strokeColor=default;align=center;verticalAlign=middle;fontFamily=Helvetica;fontSize=11;fontColor=default;labelBackgroundColor=default;endArrow=none;entryX=0;entryY=0.5;entryDx=0;entryDy=0;" parent="1" source="mPzOmOY4WDyL9PT-9BR5-68" target="mPzOmOY4WDyL9PT-9BR5-112" edge="1">
                    <mxGeometry relative="1" as="geometry">
                        <mxPoint x="-150.00000000000045" y="350" as="targetPoint"/>
                    </mxGeometry>
                </mxCell>
                <mxCell id="mPzOmOY4WDyL9PT-9BR5-68" value="Boeking" style="rounded=0;whiteSpace=wrap;html=1;" parent="1" vertex="1">
                    <mxGeometry x="-385" y="320" width="120" height="60" as="geometry"/>
                </mxCell>
                <mxCell id="mPzOmOY4WDyL9PT-9BR5-69" value="&lt;u&gt;Boeking-nummer&lt;/u&gt;" style="ellipse;whiteSpace=wrap;html=1;align=center;direction=west;" parent="1" vertex="1">
                    <mxGeometry x="-285" y="240" width="100" height="40" as="geometry"/>
                </mxCell>
                <mxCell id="mPzOmOY4WDyL9PT-9BR5-70" value="Totale prijs" style="ellipse;whiteSpace=wrap;html=1;align=center;direction=west;" parent="1" vertex="1">
                    <mxGeometry x="-340" y="440" width="100" height="40" as="geometry"/>
                </mxCell>
                <mxCell id="mPzOmOY4WDyL9PT-9BR5-71" value="Bezienswaardigheid" style="rounded=0;whiteSpace=wrap;html=1;" parent="1" vertex="1">
                    <mxGeometry x="550" y="-700" width="120" height="60" as="geometry"/>
                </mxCell>
                <mxCell id="mPzOmOY4WDyL9PT-9BR5-72" value="Naam" style="ellipse;whiteSpace=wrap;html=1;align=center;direction=west;" parent="1" vertex="1">
                    <mxGeometry x="680" y="-710" width="100" height="40" as="geometry"/>
                </mxCell>
                <mxCell id="mPzOmOY4WDyL9PT-9BR5-73" value="Beschrijving" style="ellipse;whiteSpace=wrap;html=1;align=center;direction=west;" parent="1" vertex="1">
                    <mxGeometry x="675" y="-640" width="100" height="40" as="geometry"/>
                </mxCell>
                <mxCell id="mPzOmOY4WDyL9PT-9BR5-74" value="Locatie" style="ellipse;whiteSpace=wrap;html=1;align=center;direction=west;" parent="1" vertex="1">
                    <mxGeometry x="605" y="-760" width="100" height="40" as="geometry"/>
                </mxCell>
                <mxCell id="mPzOmOY4WDyL9PT-9BR5-75" value="" style="endArrow=none;html=1;rounded=0;" parent="1" source="mPzOmOY4WDyL9PT-9BR5-71" target="mPzOmOY4WDyL9PT-9BR5-74" edge="1">
                    <mxGeometry width="50" height="50" relative="1" as="geometry">
                        <mxPoint x="970" y="-655" as="sourcePoint"/>
                        <mxPoint x="1020" y="-705" as="targetPoint"/>
                    </mxGeometry>
                </mxCell>
                <mxCell id="mPzOmOY4WDyL9PT-9BR5-76" value="" style="endArrow=none;html=1;rounded=0;" parent="1" source="mPzOmOY4WDyL9PT-9BR5-71" target="mPzOmOY4WDyL9PT-9BR5-72" edge="1">
                    <mxGeometry width="50" height="50" relative="1" as="geometry">
                        <mxPoint x="930" y="-673" as="sourcePoint"/>
                        <mxPoint x="1030" y="-695" as="targetPoint"/>
                    </mxGeometry>
                </mxCell>
                <mxCell id="mPzOmOY4WDyL9PT-9BR5-77" value="" style="endArrow=none;html=1;rounded=0;" parent="1" source="mPzOmOY4WDyL9PT-9BR5-71" target="mPzOmOY4WDyL9PT-9BR5-73" edge="1">
                    <mxGeometry width="50" height="50" relative="1" as="geometry">
                        <mxPoint x="940" y="-663" as="sourcePoint"/>
                        <mxPoint x="1040" y="-685" as="targetPoint"/>
                    </mxGeometry>
                </mxCell>
                <mxCell id="mPzOmOY4WDyL9PT-9BR5-78" value="" style="ellipse;whiteSpace=wrap;html=1;align=center;aspect=fixed;fillColor=none;strokeColor=none;resizable=0;perimeter=centerPerimeter;rotatable=0;allowArrows=0;points=[];outlineConnect=1;" parent="1" vertex="1">
                    <mxGeometry x="380" y="140" width="10" height="10" as="geometry"/>
                </mxCell>
                <mxCell id="mPzOmOY4WDyL9PT-9BR5-79" value="&lt;u&gt;Route ID&lt;/u&gt;" style="ellipse;whiteSpace=wrap;html=1;align=center;" parent="1" vertex="1">
                    <mxGeometry x="35" y="-590" width="100" height="40" as="geometry"/>
                </mxCell>
                <mxCell id="mPzOmOY4WDyL9PT-9BR5-80" style="edgeStyle=none;shape=connector;rounded=0;orthogonalLoop=1;jettySize=auto;html=1;entryX=1;entryY=1;entryDx=0;entryDy=0;strokeColor=default;align=center;verticalAlign=middle;fontFamily=Helvetica;fontSize=11;fontColor=default;labelBackgroundColor=default;endArrow=none;exitX=1;exitY=0.5;exitDx=0;exitDy=0;exitPerimeter=0;" parent="1" source="mPzOmOY4WDyL9PT-9BR5-88" target="mPzOmOY4WDyL9PT-9BR5-85" edge="1">
                    <mxGeometry relative="1" as="geometry"/>
                </mxCell>
                <mxCell id="mPzOmOY4WDyL9PT-9BR5-81" value="Gast" style="whiteSpace=wrap;html=1;fontFamily=Helvetica;fontSize=11;fontColor=default;labelBackgroundColor=default;" parent="1" vertex="1">
                    <mxGeometry x="640" y="330" width="120" height="60" as="geometry"/>
                </mxCell>
                <mxCell id="mPzOmOY4WDyL9PT-9BR5-82" style="edgeStyle=none;shape=connector;rounded=0;orthogonalLoop=1;jettySize=auto;html=1;entryX=0;entryY=0.5;entryDx=0;entryDy=0;strokeColor=default;align=center;verticalAlign=middle;fontFamily=Helvetica;fontSize=11;fontColor=default;labelBackgroundColor=default;endArrow=none;" parent="1" source="mPzOmOY4WDyL9PT-9BR5-83" target="mPzOmOY4WDyL9PT-9BR5-71" edge="1">
                    <mxGeometry relative="1" as="geometry"/>
                </mxCell>
                <mxCell id="mPzOmOY4WDyL9PT-9BR5-83" value="heeft" style="shape=rhombus;perimeter=rhombusPerimeter;whiteSpace=wrap;html=1;align=center;" parent="1" vertex="1">
                    <mxGeometry x="340" y="-700" width="120" height="60" as="geometry"/>
                </mxCell>
                <mxCell id="mPzOmOY4WDyL9PT-9BR5-84" style="edgeStyle=none;shape=connector;rounded=0;orthogonalLoop=1;jettySize=auto;html=1;entryX=0.5;entryY=1;entryDx=0;entryDy=0;strokeColor=default;align=center;verticalAlign=middle;fontFamily=Helvetica;fontSize=11;fontColor=default;labelBackgroundColor=default;endArrow=none;" parent="1" source="mPzOmOY4WDyL9PT-9BR5-85" target="mPzOmOY4WDyL9PT-9BR5-2" edge="1">
                    <mxGeometry relative="1" as="geometry"/>
                </mxCell>
                <mxCell id="mPzOmOY4WDyL9PT-9BR5-85" value="D" style="ellipse;whiteSpace=wrap;html=1;fontFamily=Helvetica;fontSize=11;fontColor=default;labelBackgroundColor=default;" parent="1" vertex="1">
                    <mxGeometry x="405" y="140" width="30" height="30" as="geometry"/>
                </mxCell>
                <mxCell id="mPzOmOY4WDyL9PT-9BR5-86" style="edgeStyle=none;shape=connector;rounded=0;orthogonalLoop=1;jettySize=auto;html=1;entryX=0.63;entryY=0.047;entryDx=0;entryDy=0;entryPerimeter=0;strokeColor=default;align=center;verticalAlign=middle;fontFamily=Helvetica;fontSize=11;fontColor=default;labelBackgroundColor=default;endArrow=none;" parent="1" source="mPzOmOY4WDyL9PT-9BR5-89" target="mPzOmOY4WDyL9PT-9BR5-6" edge="1">
                    <mxGeometry relative="1" as="geometry"/>
                </mxCell>
                <mxCell id="mPzOmOY4WDyL9PT-9BR5-87" value="" style="edgeStyle=none;shape=connector;rounded=0;orthogonalLoop=1;jettySize=auto;html=1;entryX=1;entryY=0.5;entryDx=0;entryDy=0;strokeColor=default;align=center;verticalAlign=middle;fontFamily=Helvetica;fontSize=11;fontColor=default;labelBackgroundColor=default;endArrow=none;entryPerimeter=0;" parent="1" source="mPzOmOY4WDyL9PT-9BR5-81" target="mPzOmOY4WDyL9PT-9BR5-88" edge="1">
                    <mxGeometry relative="1" as="geometry">
                        <mxPoint x="658" y="330" as="sourcePoint"/>
                        <mxPoint x="431" y="166" as="targetPoint"/>
                    </mxGeometry>
                </mxCell>
                <mxCell id="mPzOmOY4WDyL9PT-9BR5-88" value="" style="shape=requiredInterface;html=1;verticalLabelPosition=bottom;sketch=0;fontFamily=Helvetica;fontSize=11;fontColor=default;labelBackgroundColor=default;rotation=45;" parent="1" vertex="1">
                    <mxGeometry x="480" y="190" width="10" height="20" as="geometry"/>
                </mxCell>
                <mxCell id="mPzOmOY4WDyL9PT-9BR5-89" value="" style="shape=requiredInterface;html=1;verticalLabelPosition=bottom;sketch=0;fontFamily=Helvetica;fontSize=11;fontColor=default;labelBackgroundColor=default;direction=west;rotation=-30;" parent="1" vertex="1">
                    <mxGeometry x="355" y="190" width="10" height="20" as="geometry"/>
                </mxCell>
                <mxCell id="mPzOmOY4WDyL9PT-9BR5-90" value="" style="endArrow=none;html=1;rounded=0;entryX=0;entryY=1;entryDx=0;entryDy=0;" parent="1" target="mPzOmOY4WDyL9PT-9BR5-1" edge="1">
                    <mxGeometry width="50" height="50" relative="1" as="geometry">
                        <mxPoint x="90" y="-590" as="sourcePoint"/>
                        <mxPoint x="610" y="-590" as="targetPoint"/>
                    </mxGeometry>
                </mxCell>
                <mxCell id="mPzOmOY4WDyL9PT-9BR5-91" value="&lt;u&gt;GastID&lt;/u&gt;" style="ellipse;whiteSpace=wrap;html=1;align=center;" parent="1" vertex="1">
                    <mxGeometry x="720" y="250" width="100" height="40" as="geometry"/>
                </mxCell>
                <mxCell id="mPzOmOY4WDyL9PT-9BR5-92" value="" style="edgeStyle=none;shape=connector;rounded=0;orthogonalLoop=1;jettySize=auto;html=1;entryX=1;entryY=0.5;entryDx=0;entryDy=0;entryPerimeter=0;strokeColor=default;align=center;verticalAlign=middle;fontFamily=Helvetica;fontSize=11;fontColor=default;labelBackgroundColor=default;endArrow=none;" parent="1" source="mPzOmOY4WDyL9PT-9BR5-85" target="mPzOmOY4WDyL9PT-9BR5-89" edge="1">
                    <mxGeometry relative="1" as="geometry">
                        <mxPoint x="408" y="164" as="sourcePoint"/>
                        <mxPoint x="193" y="323" as="targetPoint"/>
                    </mxGeometry>
                </mxCell>
                <mxCell id="mPzOmOY4WDyL9PT-9BR5-93" value="Naam" style="ellipse;whiteSpace=wrap;html=1;align=center;" parent="1" vertex="1">
                    <mxGeometry x="790" y="310" width="100" height="40" as="geometry"/>
                </mxCell>
                <mxCell id="mPzOmOY4WDyL9PT-9BR5-94" value="" style="endArrow=none;html=1;rounded=0;entryX=0.925;entryY=1.033;entryDx=0;entryDy=0;entryPerimeter=0;exitX=0.44;exitY=-0.05;exitDx=0;exitDy=0;exitPerimeter=0;" parent="1" source="mPzOmOY4WDyL9PT-9BR5-26" target="mPzOmOY4WDyL9PT-9BR5-1" edge="1">
                    <mxGeometry width="50" height="50" relative="1" as="geometry">
                        <mxPoint x="560" y="-540" as="sourcePoint"/>
                        <mxPoint x="610" y="-590" as="targetPoint"/>
                    </mxGeometry>
                </mxCell>
                <mxCell id="mPzOmOY4WDyL9PT-9BR5-95" value="Voornaam" style="ellipse;whiteSpace=wrap;html=1;align=center;" parent="1" vertex="1">
                    <mxGeometry x="790" y="390" width="100" height="40" as="geometry"/>
                </mxCell>
                <mxCell id="mPzOmOY4WDyL9PT-9BR5-96" value="" style="endArrow=none;html=1;rounded=0;entryX=1;entryY=0.5;entryDx=0;entryDy=0;exitX=0;exitY=0.5;exitDx=0;exitDy=0;" parent="1" source="mPzOmOY4WDyL9PT-9BR5-83" target="mPzOmOY4WDyL9PT-9BR5-1" edge="1">
                    <mxGeometry width="50" height="50" relative="1" as="geometry">
                        <mxPoint x="570" y="-510" as="sourcePoint"/>
                        <mxPoint x="620" y="-560" as="targetPoint"/>
                    </mxGeometry>
                </mxCell>
                <mxCell id="mPzOmOY4WDyL9PT-9BR5-97" style="edgeStyle=none;shape=connector;rounded=0;orthogonalLoop=1;jettySize=auto;html=1;entryX=0.388;entryY=1;entryDx=0;entryDy=0;entryPerimeter=0;strokeColor=default;align=center;verticalAlign=middle;fontFamily=Helvetica;fontSize=11;fontColor=default;labelBackgroundColor=default;endArrow=none;" parent="1" source="mPzOmOY4WDyL9PT-9BR5-81" target="mPzOmOY4WDyL9PT-9BR5-91" edge="1">
                    <mxGeometry relative="1" as="geometry"/>
                </mxCell>
                <mxCell id="mPzOmOY4WDyL9PT-9BR5-98" value="Naam" style="ellipse;whiteSpace=wrap;html=1;align=center;" parent="1" vertex="1">
                    <mxGeometry x="-65" y="480" width="100" height="40" as="geometry"/>
                </mxCell>
                <mxCell id="mPzOmOY4WDyL9PT-9BR5-99" value="Geboortedatum" style="ellipse;whiteSpace=wrap;html=1;align=center;" parent="1" vertex="1">
                    <mxGeometry x="640" y="410" width="100" height="40" as="geometry"/>
                </mxCell>
                <mxCell id="mPzOmOY4WDyL9PT-9BR5-100" style="edgeStyle=none;shape=connector;rounded=0;orthogonalLoop=1;jettySize=auto;html=1;entryX=0.096;entryY=0.7;entryDx=0;entryDy=0;entryPerimeter=0;strokeColor=default;align=center;verticalAlign=middle;fontFamily=Helvetica;fontSize=11;fontColor=default;labelBackgroundColor=default;endArrow=none;" parent="1" source="mPzOmOY4WDyL9PT-9BR5-81" target="mPzOmOY4WDyL9PT-9BR5-95" edge="1">
                    <mxGeometry relative="1" as="geometry"/>
                </mxCell>
                <mxCell id="mPzOmOY4WDyL9PT-9BR5-101" style="edgeStyle=none;shape=connector;rounded=0;orthogonalLoop=1;jettySize=auto;html=1;entryX=0.324;entryY=0.06;entryDx=0;entryDy=0;entryPerimeter=0;strokeColor=default;align=center;verticalAlign=middle;fontFamily=Helvetica;fontSize=11;fontColor=default;labelBackgroundColor=default;endArrow=none;" parent="1" source="mPzOmOY4WDyL9PT-9BR5-6" target="mPzOmOY4WDyL9PT-9BR5-103" edge="1">
                    <mxGeometry relative="1" as="geometry"/>
                </mxCell>
                <mxCell id="mPzOmOY4WDyL9PT-9BR5-102" style="edgeStyle=none;shape=connector;rounded=0;orthogonalLoop=1;jettySize=auto;html=1;entryX=0.08;entryY=0.68;entryDx=0;entryDy=0;entryPerimeter=0;strokeColor=default;align=center;verticalAlign=middle;fontFamily=Helvetica;fontSize=11;fontColor=default;labelBackgroundColor=default;endArrow=none;" parent="1" source="mPzOmOY4WDyL9PT-9BR5-81" target="mPzOmOY4WDyL9PT-9BR5-93" edge="1">
                    <mxGeometry relative="1" as="geometry"/>
                </mxCell>
                <mxCell id="mPzOmOY4WDyL9PT-9BR5-103" value="Voornaam" style="ellipse;whiteSpace=wrap;html=1;align=center;" parent="1" vertex="1">
                    <mxGeometry x="260" y="450" width="100" height="40" as="geometry"/>
                </mxCell>
                <mxCell id="mPzOmOY4WDyL9PT-9BR5-104" style="edgeStyle=none;shape=connector;rounded=0;orthogonalLoop=1;jettySize=auto;html=1;entryX=0.809;entryY=-0.036;entryDx=0;entryDy=0;entryPerimeter=0;strokeColor=default;align=center;verticalAlign=middle;fontFamily=Helvetica;fontSize=11;fontColor=default;labelBackgroundColor=default;endArrow=none;" parent="1" source="mPzOmOY4WDyL9PT-9BR5-43" target="mPzOmOY4WDyL9PT-9BR5-1" edge="1">
                    <mxGeometry relative="1" as="geometry"/>
                </mxCell>
                <mxCell id="mPzOmOY4WDyL9PT-9BR5-105" value="Geboortedatum" style="ellipse;whiteSpace=wrap;html=1;align=center;" parent="1" vertex="1">
                    <mxGeometry x="35" y="470" width="100" height="40" as="geometry"/>
                </mxCell>
                <mxCell id="mPzOmOY4WDyL9PT-9BR5-106" value="&lt;u&gt;BezienswaardigheidID&lt;/u&gt;" style="ellipse;whiteSpace=wrap;html=1;align=center;direction=west;" parent="1" vertex="1">
                    <mxGeometry x="500" y="-610" width="150" height="40" as="geometry"/>
                </mxCell>
                <mxCell id="mPzOmOY4WDyL9PT-9BR5-107" style="edgeStyle=none;shape=connector;rounded=0;orthogonalLoop=1;jettySize=auto;html=1;entryX=0.366;entryY=0.993;entryDx=0;entryDy=0;entryPerimeter=0;strokeColor=default;align=center;verticalAlign=middle;fontFamily=Helvetica;fontSize=11;fontColor=default;labelBackgroundColor=default;endArrow=none;" parent="1" source="mPzOmOY4WDyL9PT-9BR5-106" target="mPzOmOY4WDyL9PT-9BR5-71" edge="1">
                    <mxGeometry relative="1" as="geometry"/>
                </mxCell>
                <mxCell id="mPzOmOY4WDyL9PT-9BR5-108" style="edgeStyle=none;shape=connector;rounded=0;orthogonalLoop=1;jettySize=auto;html=1;strokeColor=default;align=center;verticalAlign=middle;fontFamily=Helvetica;fontSize=11;fontColor=default;labelBackgroundColor=default;endArrow=none;" parent="1" source="mPzOmOY4WDyL9PT-9BR5-109" target="mPzOmOY4WDyL9PT-9BR5-46" edge="1">
                    <mxGeometry relative="1" as="geometry"/>
                </mxCell>
                <mxCell id="mPzOmOY4WDyL9PT-9BR5-109" value="Heeft" style="shape=rhombus;perimeter=rhombusPerimeter;whiteSpace=wrap;html=1;align=center;" parent="1" vertex="1">
                    <mxGeometry x="-305" y="-80" width="120" height="60" as="geometry"/>
                </mxCell>
                <mxCell id="mPzOmOY4WDyL9PT-9BR5-110" style="edgeStyle=none;shape=connector;rounded=0;orthogonalLoop=1;jettySize=auto;html=1;strokeColor=default;align=center;verticalAlign=middle;fontFamily=Helvetica;fontSize=11;fontColor=default;labelBackgroundColor=default;endArrow=none;" parent="1" target="mPzOmOY4WDyL9PT-9BR5-13" edge="1">
                    <mxGeometry relative="1" as="geometry">
                        <mxPoint x="-650.4641084374005" y="-5.565472253566213" as="sourcePoint"/>
                    </mxGeometry>
                </mxCell>
                <mxCell id="mPzOmOY4WDyL9PT-9BR5-111" style="edgeStyle=none;shape=connector;rounded=0;orthogonalLoop=1;jettySize=auto;html=1;strokeColor=default;align=center;verticalAlign=middle;fontFamily=Helvetica;fontSize=11;fontColor=default;labelBackgroundColor=default;endArrow=none;" parent="1" source="mPzOmOY4WDyL9PT-9BR5-112" target="mPzOmOY4WDyL9PT-9BR5-6" edge="1">
                    <mxGeometry relative="1" as="geometry"/>
                </mxCell>
                <mxCell id="mPzOmOY4WDyL9PT-9BR5-112" value="Boekt" style="rhombus;whiteSpace=wrap;html=1;fontFamily=Helvetica;fontSize=11;fontColor=default;labelBackgroundColor=default;" parent="1" vertex="1">
                    <mxGeometry x="-145" y="320" width="80" height="60" as="geometry"/>
                </mxCell>
                <mxCell id="mPzOmOY4WDyL9PT-9BR5-113" style="edgeStyle=none;shape=connector;rounded=0;orthogonalLoop=1;jettySize=auto;html=1;entryX=0;entryY=0.5;entryDx=0;entryDy=0;strokeColor=default;align=center;verticalAlign=middle;fontFamily=Helvetica;fontSize=11;fontColor=default;labelBackgroundColor=default;endArrow=none;" parent="1" source="mPzOmOY4WDyL9PT-9BR5-13" target="mPzOmOY4WDyL9PT-9BR5-109" edge="1">
                    <mxGeometry relative="1" as="geometry"/>
                </mxCell>
                <mxCell id="mPzOmOY4WDyL9PT-9BR5-114" value="" style="endArrow=none;html=1;rounded=0;exitX=0.75;exitY=0;exitDx=0;exitDy=0;" parent="1" source="mPzOmOY4WDyL9PT-9BR5-68" edge="1">
                    <mxGeometry width="50" height="50" relative="1" as="geometry">
                        <mxPoint x="-140" y="220" as="sourcePoint"/>
                        <mxPoint x="-250" y="280" as="targetPoint"/>
                    </mxGeometry>
                </mxCell>
                <mxCell id="mPzOmOY4WDyL9PT-9BR5-115" value="" style="endArrow=none;html=1;rounded=0;entryX=0.622;entryY=1.037;entryDx=0;entryDy=0;entryPerimeter=0;" parent="1" source="mPzOmOY4WDyL9PT-9BR5-70" target="mPzOmOY4WDyL9PT-9BR5-68" edge="1">
                    <mxGeometry width="50" height="50" relative="1" as="geometry">
                        <mxPoint x="-140" y="220" as="sourcePoint"/>
                        <mxPoint x="-90" y="170" as="targetPoint"/>
                    </mxGeometry>
                </mxCell>
                <mxCell id="mPzOmOY4WDyL9PT-9BR5-116" value="Kamernummer" style="ellipse;whiteSpace=wrap;html=1;align=center;fontStyle=4;" parent="1" vertex="1">
                    <mxGeometry x="-720" y="-10" width="100" height="40" as="geometry"/>
                </mxCell>
                <mxCell id="mPzOmOY4WDyL9PT-9BR5-117" style="edgeStyle=none;shape=connector;rounded=0;orthogonalLoop=1;jettySize=auto;html=1;entryX=0.5;entryY=1;entryDx=0;entryDy=0;strokeColor=default;align=center;verticalAlign=middle;fontFamily=Helvetica;fontSize=11;fontColor=default;labelBackgroundColor=default;endArrow=none;" parent="1" source="mPzOmOY4WDyL9PT-9BR5-119" target="mPzOmOY4WDyL9PT-9BR5-1" edge="1">
                    <mxGeometry relative="1" as="geometry"/>
                </mxCell>
                <mxCell id="mPzOmOY4WDyL9PT-9BR5-118" style="edgeStyle=none;shape=connector;rounded=0;orthogonalLoop=1;jettySize=auto;html=1;entryX=0.5;entryY=0;entryDx=0;entryDy=0;strokeColor=default;align=center;verticalAlign=middle;fontFamily=Helvetica;fontSize=11;fontColor=default;labelBackgroundColor=default;endArrow=none;" parent="1" source="mPzOmOY4WDyL9PT-9BR5-119" target="mPzOmOY4WDyL9PT-9BR5-37" edge="1">
                    <mxGeometry relative="1" as="geometry"/>
                </mxCell>
                <mxCell id="mPzOmOY4WDyL9PT-9BR5-119" value="vaart deze" style="rhombus;whiteSpace=wrap;html=1;fontFamily=Helvetica;fontSize=11;fontColor=default;labelBackgroundColor=default;" parent="1" vertex="1">
                    <mxGeometry x="160" y="-510" width="80" height="50" as="geometry"/>
                </mxCell>
                <mxCell id="mPzOmOY4WDyL9PT-9BR5-120" value="(niet zeker van)&lt;div&gt;(Kan ook tot schip horen)&lt;/div&gt;" style="text;html=1;align=center;verticalAlign=middle;resizable=0;points=[];autosize=1;strokeColor=none;fillColor=none;fontFamily=Helvetica;fontSize=11;fontColor=default;labelBackgroundColor=default;" parent="1" vertex="1">
                    <mxGeometry x="235" y="-505" width="150" height="40" as="geometry"/>
                </mxCell>
                <mxCell id="mPzOmOY4WDyL9PT-9BR5-121" style="edgeStyle=none;shape=connector;rounded=0;orthogonalLoop=1;jettySize=auto;html=1;strokeColor=default;align=center;verticalAlign=middle;fontFamily=Helvetica;fontSize=11;fontColor=default;labelBackgroundColor=default;endArrow=none;" parent="1" source="mPzOmOY4WDyL9PT-9BR5-122" edge="1">
                    <mxGeometry relative="1" as="geometry">
                        <mxPoint x="-210" y="-210" as="targetPoint"/>
                    </mxGeometry>
                </mxCell>
                <mxCell id="mPzOmOY4WDyL9PT-9BR5-122" value="Behoort tot" style="shape=rhombus;perimeter=rhombusPerimeter;whiteSpace=wrap;html=1;align=center;" parent="1" vertex="1">
                    <mxGeometry x="60" y="-100" width="120" height="60" as="geometry"/>
                </mxCell>
                <mxCell id="mPzOmOY4WDyL9PT-9BR5-123" value="" style="endArrow=none;html=1;rounded=0;entryX=0.413;entryY=0.993;entryDx=0;entryDy=0;entryPerimeter=0;" parent="1" target="mPzOmOY4WDyL9PT-9BR5-37" edge="1">
                    <mxGeometry width="50" height="50" relative="1" as="geometry">
                        <mxPoint x="135" y="-90" as="sourcePoint"/>
                        <mxPoint x="185" y="-140" as="targetPoint"/>
                    </mxGeometry>
                </mxCell>
                <mxCell id="mPzOmOY4WDyL9PT-9BR5-124" value="1 van de twee&lt;div&gt;nog niet zeker&lt;/div&gt;" style="text;html=1;align=center;verticalAlign=middle;resizable=0;points=[];autosize=1;strokeColor=none;fillColor=none;fontFamily=Helvetica;fontSize=11;fontColor=default;labelBackgroundColor=default;" parent="1" vertex="1">
                    <mxGeometry x="55" y="-150" width="90" height="40" as="geometry"/>
                </mxCell>
                <mxCell id="mPzOmOY4WDyL9PT-9BR5-125" style="edgeStyle=none;shape=connector;rounded=0;orthogonalLoop=1;jettySize=auto;html=1;entryX=0;entryY=0;entryDx=0;entryDy=0;strokeColor=default;align=center;verticalAlign=middle;fontFamily=Helvetica;fontSize=11;fontColor=default;labelBackgroundColor=default;endArrow=none;" parent="1" source="mPzOmOY4WDyL9PT-9BR5-122" target="mPzOmOY4WDyL9PT-9BR5-2" edge="1">
                    <mxGeometry relative="1" as="geometry"/>
                </mxCell>
                <mxCell id="2" value="Vaarroute" style="rounded=0;whiteSpace=wrap;html=1;" vertex="1" parent="1">
                    <mxGeometry x="145" y="-700" width="120" height="60" as="geometry"/>
                </mxCell>
                <mxCell id="3" value="Passagier" style="rounded=0;whiteSpace=wrap;html=1;" vertex="1" parent="1">
                    <mxGeometry x="360" y="10" width="120" height="60" as="geometry"/>
                </mxCell>
                <mxCell id="4" style="edgeStyle=none;shape=connector;rounded=0;orthogonalLoop=1;jettySize=auto;html=1;strokeColor=default;align=center;verticalAlign=middle;fontFamily=Helvetica;fontSize=11;fontColor=default;labelBackgroundColor=default;endArrow=none;" edge="1" parent="1" source="7" target="104">
                    <mxGeometry relative="1" as="geometry"/>
                </mxCell>
                <mxCell id="5" value="" style="edgeStyle=none;shape=connector;rounded=0;orthogonalLoop=1;jettySize=auto;html=1;strokeColor=default;align=center;verticalAlign=middle;fontFamily=Helvetica;fontSize=11;fontColor=default;labelBackgroundColor=default;endArrow=none;" edge="1" parent="1" source="7" target="20">
                    <mxGeometry relative="1" as="geometry"/>
                </mxCell>
                <mxCell id="6" style="edgeStyle=none;shape=connector;rounded=0;orthogonalLoop=1;jettySize=auto;html=1;strokeColor=default;align=center;verticalAlign=middle;fontFamily=Helvetica;fontSize=11;fontColor=default;labelBackgroundColor=default;endArrow=none;" edge="1" parent="1" source="7" target="97">
                    <mxGeometry relative="1" as="geometry"/>
                </mxCell>
                <mxCell id="7" value="Hoofdboeker" style="whiteSpace=wrap;html=1;align=center;" vertex="1" parent="1">
                    <mxGeometry x="105" y="320" width="140" height="60" as="geometry"/>
                </mxCell>
                <mxCell id="8" value="Vragen" style="ellipse;whiteSpace=wrap;html=1;align=center;" vertex="1" parent="1">
                    <mxGeometry x="5" y="270" width="100" height="40" as="geometry"/>
                </mxCell>
                <mxCell id="9" value="Facturen" style="ellipse;whiteSpace=wrap;html=1;align=center;" vertex="1" parent="1">
                    <mxGeometry x="285" y="270" width="100" height="40" as="geometry"/>
                </mxCell>
                <mxCell id="10" value="" style="endArrow=none;html=1;rounded=0;" edge="1" parent="1" source="7" target="8">
                    <mxGeometry width="50" height="50" relative="1" as="geometry">
                        <mxPoint x="435" y="110" as="sourcePoint"/>
                        <mxPoint x="485" y="60" as="targetPoint"/>
                    </mxGeometry>
                </mxCell>
                <mxCell id="11" value="" style="endArrow=none;html=1;rounded=0;" edge="1" parent="1" source="7" target="9">
                    <mxGeometry width="50" height="50" relative="1" as="geometry">
                        <mxPoint x="435" y="110" as="sourcePoint"/>
                        <mxPoint x="485" y="60" as="targetPoint"/>
                    </mxGeometry>
                </mxCell>
                <mxCell id="12" value="Extra kosten tijdens de reis" style="ellipse;whiteSpace=wrap;html=1;align=center;" vertex="1" parent="1">
                    <mxGeometry x="-15" y="390" width="100" height="40" as="geometry"/>
                </mxCell>
                <mxCell id="13" value="" style="endArrow=none;html=1;rounded=0;" edge="1" parent="1" source="12" target="7">
                    <mxGeometry width="50" height="50" relative="1" as="geometry">
                        <mxPoint x="435" y="110" as="sourcePoint"/>
                        <mxPoint x="485" y="60" as="targetPoint"/>
                    </mxGeometry>
                </mxCell>
                <mxCell id="14" value="Kamertypes" style="whiteSpace=wrap;html=1;align=center;" vertex="1" parent="1">
                    <mxGeometry x="-610" y="-80" width="110" height="60" as="geometry"/>
                </mxCell>
                <mxCell id="15" value="Duurdere kamers" style="ellipse;whiteSpace=wrap;html=1;align=center;" vertex="1" parent="1">
                    <mxGeometry x="-730" y="-120" width="100" height="40" as="geometry"/>
                </mxCell>
                <mxCell id="16" value="Kleingezinkamer" style="ellipse;whiteSpace=wrap;html=1;align=center;" vertex="1" parent="1">
                    <mxGeometry x="-480" y="-10" width="110" height="50" as="geometry"/>
                </mxCell>
                <mxCell id="17" value="Tweepersoonskamer" style="ellipse;whiteSpace=wrap;html=1;align=center;" vertex="1" parent="1">
                    <mxGeometry x="-480" y="-120" width="110" height="40" as="geometry"/>
                </mxCell>
                <mxCell id="18" style="edgeStyle=none;shape=connector;rounded=0;orthogonalLoop=1;jettySize=auto;html=1;strokeColor=default;align=center;verticalAlign=middle;fontFamily=Helvetica;fontSize=11;fontColor=default;labelBackgroundColor=default;endArrow=none;" edge="1" parent="1" source="19" target="2">
                    <mxGeometry relative="1" as="geometry"/>
                </mxCell>
                <mxCell id="19" value="Diepte&lt;span style=&quot;color: rgba(0, 0, 0, 0); font-family: monospace; font-size: 0px; text-align: start; text-wrap-mode: nowrap;&quot;&gt;%3CmxGraphModel%3E%3Croot%3E%3CmxCell%20id%3D%220%22%2F%3E%3CmxCell%20id%3D%221%22%20parent%3D%220%22%2F%3E%3CmxCell%20id%3D%222%22%20value%3D%22Vertrekdatum%22%20style%3D%22ellipse%3BwhiteSpace%3Dwrap%3Bhtml%3D1%3Balign%3Dcenter%3Bdirection%3Dwest%3B%22%20vertex%3D%221%22%20parent%3D%221%22%3E%3CmxGeometry%20x%3D%22615%22%20y%3D%22-110%22%20width%3D%22100%22%20height%3D%2240%22%20as%3D%22geometry%22%2F%3E%3C%2FmxCell%3E%3C%2Froot%3E%3C%2FmxGraphModel%3E&lt;/span&gt;" style="ellipse;whiteSpace=wrap;html=1;align=center;" vertex="1" parent="1">
                    <mxGeometry x="120" y="-830" width="100" height="40" as="geometry"/>
                </mxCell>
                <mxCell id="20" value="Prijs" style="ellipse;whiteSpace=wrap;html=1;align=center;" vertex="1" parent="1">
                    <mxGeometry x="275" y="360" width="100" height="40" as="geometry"/>
                </mxCell>
                <mxCell id="21" value="Aantal passagiers" style="ellipse;whiteSpace=wrap;html=1;align=center;" vertex="1" parent="1">
                    <mxGeometry x="145" y="410" width="100" height="40" as="geometry"/>
                </mxCell>
                <mxCell id="22" value="Grootgezinkamer" style="ellipse;whiteSpace=wrap;html=1;align=center;" vertex="1" parent="1">
                    <mxGeometry x="-610" y="30" width="110" height="40" as="geometry"/>
                </mxCell>
                <mxCell id="23" value="" style="endArrow=none;html=1;rounded=0;" edge="1" parent="1" source="15" target="14">
                    <mxGeometry width="50" height="50" relative="1" as="geometry">
                        <mxPoint x="-790" y="-160" as="sourcePoint"/>
                        <mxPoint x="-740" y="-210" as="targetPoint"/>
                    </mxGeometry>
                </mxCell>
                <mxCell id="24" value="" style="endArrow=none;html=1;rounded=0;" edge="1" parent="1" source="14" target="17">
                    <mxGeometry width="50" height="50" relative="1" as="geometry">
                        <mxPoint x="-790" y="-160" as="sourcePoint"/>
                        <mxPoint x="-740" y="-210" as="targetPoint"/>
                    </mxGeometry>
                </mxCell>
                <mxCell id="25" value="" style="endArrow=none;html=1;rounded=0;" edge="1" parent="1" source="14" target="16">
                    <mxGeometry width="50" height="50" relative="1" as="geometry">
                        <mxPoint x="-490" y="-10" as="sourcePoint"/>
                        <mxPoint x="-740" y="-210" as="targetPoint"/>
                    </mxGeometry>
                </mxCell>
                <mxCell id="26" value="" style="endArrow=none;html=1;rounded=0;" edge="1" parent="1" source="22" target="14">
                    <mxGeometry width="50" height="50" relative="1" as="geometry">
                        <mxPoint x="-790" y="-160" as="sourcePoint"/>
                        <mxPoint x="-740" y="-210" as="targetPoint"/>
                    </mxGeometry>
                </mxCell>
                <mxCell id="27" value="Havens" style="ellipse;whiteSpace=wrap;html=1;align=center;" vertex="1" parent="1">
                    <mxGeometry x="245" y="-590" width="100" height="40" as="geometry"/>
                </mxCell>
                <mxCell id="28" value="Geboortedatum" style="ellipse;whiteSpace=wrap;html=1;align=center;" vertex="1" parent="1">
                    <mxGeometry x="310" y="-50" width="100" height="40" as="geometry"/>
                </mxCell>
                <mxCell id="29" value="Nationaliteit" style="ellipse;whiteSpace=wrap;html=1;align=center;" vertex="1" parent="1">
                    <mxGeometry x="240" y="60" width="100" height="40" as="geometry"/>
                </mxCell>
                <mxCell id="30" value="Naam" style="ellipse;whiteSpace=wrap;html=1;align=center;" vertex="1" parent="1">
                    <mxGeometry x="240" width="100" height="40" as="geometry"/>
                </mxCell>
                <mxCell id="31" value="Telefoonnummer" style="ellipse;whiteSpace=wrap;html=1;align=center;" vertex="1" parent="1">
                    <mxGeometry x="425" y="-50" width="100" height="40" as="geometry"/>
                </mxCell>
                <mxCell id="32" value="" style="endArrow=none;html=1;rounded=0;" edge="1" parent="1" source="3" target="31">
                    <mxGeometry width="50" height="50" relative="1" as="geometry">
                        <mxPoint x="370" y="164" as="sourcePoint"/>
                        <mxPoint x="406" y="150" as="targetPoint"/>
                    </mxGeometry>
                </mxCell>
                <mxCell id="33" value="" style="endArrow=none;html=1;rounded=0;" edge="1" parent="1" source="3" target="29">
                    <mxGeometry width="50" height="50" relative="1" as="geometry">
                        <mxPoint x="380" y="174" as="sourcePoint"/>
                        <mxPoint x="416" y="160" as="targetPoint"/>
                    </mxGeometry>
                </mxCell>
                <mxCell id="34" value="" style="endArrow=none;html=1;rounded=0;" edge="1" parent="1" source="3" target="30">
                    <mxGeometry width="50" height="50" relative="1" as="geometry">
                        <mxPoint x="390" y="184" as="sourcePoint"/>
                        <mxPoint x="426" y="170" as="targetPoint"/>
                    </mxGeometry>
                </mxCell>
                <mxCell id="35" value="" style="endArrow=none;html=1;rounded=0;" edge="1" parent="1" source="28" target="3">
                    <mxGeometry width="50" height="50" relative="1" as="geometry">
                        <mxPoint x="400" y="194" as="sourcePoint"/>
                        <mxPoint x="436" y="180" as="targetPoint"/>
                    </mxGeometry>
                </mxCell>
                <mxCell id="36" value="" style="endArrow=none;html=1;rounded=0;" edge="1" parent="1" source="7" target="21">
                    <mxGeometry width="50" height="50" relative="1" as="geometry">
                        <mxPoint x="77" y="405" as="sourcePoint"/>
                        <mxPoint x="131" y="380" as="targetPoint"/>
                    </mxGeometry>
                </mxCell>
                <mxCell id="37" value="" style="endArrow=none;html=1;rounded=0;" edge="1" parent="1" source="20" target="7">
                    <mxGeometry width="50" height="50" relative="1" as="geometry">
                        <mxPoint x="87" y="415" as="sourcePoint"/>
                        <mxPoint x="141" y="390" as="targetPoint"/>
                    </mxGeometry>
                </mxCell>
                <mxCell id="38" value="Cruisereis" style="rounded=0;whiteSpace=wrap;html=1;" vertex="1" parent="1">
                    <mxGeometry x="135" y="-275" width="120" height="60" as="geometry"/>
                </mxCell>
                <mxCell id="39" value="aankomstdatum" style="ellipse;whiteSpace=wrap;html=1;align=center;direction=west;" vertex="1" parent="1">
                    <mxGeometry x="435" y="-290" width="100" height="40" as="geometry"/>
                </mxCell>
                <mxCell id="40" value="Naam" style="ellipse;whiteSpace=wrap;html=1;align=center;direction=west;" vertex="1" parent="1">
                    <mxGeometry x="355" y="-340" width="100" height="40" as="geometry"/>
                </mxCell>
                <mxCell id="41" value="&lt;u&gt;Cruise-ID&lt;/u&gt;" style="ellipse;whiteSpace=wrap;html=1;align=center;direction=west;" vertex="1" parent="1">
                    <mxGeometry x="310" y="-380" width="100" height="40" as="geometry"/>
                </mxCell>
                <mxCell id="42" value="Startdatum" style="ellipse;whiteSpace=wrap;html=1;align=center;direction=west;" vertex="1" parent="1">
                    <mxGeometry x="435" y="-220" width="100" height="40" as="geometry"/>
                </mxCell>
                <mxCell id="43" value="Locatie" style="ellipse;whiteSpace=wrap;html=1;align=center;" vertex="1" parent="1">
                    <mxGeometry x="265" y="-780" width="100" height="40" as="geometry"/>
                </mxCell>
                <mxCell id="44" style="edgeStyle=none;shape=connector;rounded=0;orthogonalLoop=1;jettySize=auto;html=1;entryX=0;entryY=0.25;entryDx=0;entryDy=0;strokeColor=default;align=center;verticalAlign=middle;fontFamily=Helvetica;fontSize=11;fontColor=default;labelBackgroundColor=default;endArrow=none;" edge="1" parent="1" source="45" target="2">
                    <mxGeometry relative="1" as="geometry"/>
                </mxCell>
                <mxCell id="45" value="Naam" style="ellipse;whiteSpace=wrap;html=1;align=center;" vertex="1" parent="1">
                    <mxGeometry x="20" y="-760" width="100" height="40" as="geometry"/>
                </mxCell>
                <mxCell id="46" value="Cruiseschip" style="rounded=0;whiteSpace=wrap;html=1;direction=west;" vertex="1" parent="1">
                    <mxGeometry x="-305" y="-275" width="120" height="60" as="geometry"/>
                </mxCell>
                <mxCell id="47" value="Diepgang" style="ellipse;whiteSpace=wrap;html=1;align=center;direction=west;" vertex="1" parent="1">
                    <mxGeometry x="-485" y="-250" width="100" height="40" as="geometry"/>
                </mxCell>
                <mxCell id="48" value="Aantal kamers" style="ellipse;whiteSpace=wrap;html=1;align=center;direction=west;" vertex="1" parent="1">
                    <mxGeometry x="-485" y="-300" width="100" height="40" as="geometry"/>
                </mxCell>
                <mxCell id="49" value="Maximum capaciteit" style="ellipse;whiteSpace=wrap;html=1;align=center;direction=west;" vertex="1" parent="1">
                    <mxGeometry x="-425" y="-200" width="100" height="40" as="geometry"/>
                </mxCell>
                <mxCell id="50" value="Bouwjaar" style="ellipse;whiteSpace=wrap;html=1;align=center;direction=west;" vertex="1" parent="1">
                    <mxGeometry x="-375" y="-390" width="100" height="40" as="geometry"/>
                </mxCell>
                <mxCell id="51" value="Naam" style="ellipse;whiteSpace=wrap;html=1;align=center;direction=west;" vertex="1" parent="1">
                    <mxGeometry x="-405" y="-340" width="100" height="40" as="geometry"/>
                </mxCell>
                <mxCell id="52" value="" style="endArrow=none;html=1;rounded=0;" edge="1" parent="1" source="46" target="48">
                    <mxGeometry width="50" height="50" relative="1" as="geometry">
                        <mxPoint x="-555" y="-180" as="sourcePoint"/>
                        <mxPoint x="-505" y="-230" as="targetPoint"/>
                    </mxGeometry>
                </mxCell>
                <mxCell id="53" value="" style="endArrow=none;html=1;rounded=0;" edge="1" parent="1" source="51" target="46">
                    <mxGeometry width="50" height="50" relative="1" as="geometry">
                        <mxPoint x="-545" y="-170" as="sourcePoint"/>
                        <mxPoint x="-495" y="-220" as="targetPoint"/>
                    </mxGeometry>
                </mxCell>
                <mxCell id="54" value="" style="endArrow=none;html=1;rounded=0;" edge="1" parent="1" source="46" target="47">
                    <mxGeometry width="50" height="50" relative="1" as="geometry">
                        <mxPoint x="-525" y="-150" as="sourcePoint"/>
                        <mxPoint x="-475" y="-200" as="targetPoint"/>
                    </mxGeometry>
                </mxCell>
                <mxCell id="55" value="" style="endArrow=none;html=1;rounded=0;" edge="1" parent="1" source="46" target="49">
                    <mxGeometry width="50" height="50" relative="1" as="geometry">
                        <mxPoint x="-515" y="-140" as="sourcePoint"/>
                        <mxPoint x="-465" y="-190" as="targetPoint"/>
                    </mxGeometry>
                </mxCell>
                <mxCell id="56" value="" style="endArrow=none;html=1;rounded=0;" edge="1" parent="1" source="50" target="46">
                    <mxGeometry width="50" height="50" relative="1" as="geometry">
                        <mxPoint x="-505" y="-130" as="sourcePoint"/>
                        <mxPoint x="-455" y="-180" as="targetPoint"/>
                    </mxGeometry>
                </mxCell>
                <mxCell id="57" value="&lt;u&gt;Schip-ID&lt;/u&gt;" style="ellipse;whiteSpace=wrap;html=1;align=center;direction=west;" vertex="1" parent="1">
                    <mxGeometry x="-285" y="-340" width="100" height="40" as="geometry"/>
                </mxCell>
                <mxCell id="58" value="" style="endArrow=none;html=1;rounded=0;" edge="1" parent="1" source="57" target="46">
                    <mxGeometry width="50" height="50" relative="1" as="geometry">
                        <mxPoint x="-248" y="-290" as="sourcePoint"/>
                        <mxPoint x="-251" y="-270" as="targetPoint"/>
                    </mxGeometry>
                </mxCell>
                <mxCell id="59" value="" style="endArrow=none;html=1;rounded=0;" edge="1" parent="1" source="38" target="39">
                    <mxGeometry width="50" height="50" relative="1" as="geometry">
                        <mxPoint x="242" y="-177" as="sourcePoint"/>
                        <mxPoint x="205" y="-160" as="targetPoint"/>
                    </mxGeometry>
                </mxCell>
                <mxCell id="60" value="" style="endArrow=none;html=1;rounded=0;" edge="1" parent="1" source="42" target="38">
                    <mxGeometry width="50" height="50" relative="1" as="geometry">
                        <mxPoint x="252" y="-167" as="sourcePoint"/>
                        <mxPoint x="215" y="-150" as="targetPoint"/>
                    </mxGeometry>
                </mxCell>
                <mxCell id="61" value="" style="endArrow=none;html=1;rounded=0;" edge="1" parent="1" source="40" target="38">
                    <mxGeometry width="50" height="50" relative="1" as="geometry">
                        <mxPoint x="380" y="-230" as="sourcePoint"/>
                        <mxPoint x="410" y="-230" as="targetPoint"/>
                    </mxGeometry>
                </mxCell>
                <mxCell id="62" value="" style="endArrow=none;html=1;rounded=0;" edge="1" parent="1" source="41" target="38">
                    <mxGeometry width="50" height="50" relative="1" as="geometry">
                        <mxPoint x="390" y="-220" as="sourcePoint"/>
                        <mxPoint x="420" y="-220" as="targetPoint"/>
                    </mxGeometry>
                </mxCell>
                <mxCell id="63" value="Vaart" style="rhombus;whiteSpace=wrap;html=1;" vertex="1" parent="1">
                    <mxGeometry x="-85" y="-280" width="120" height="70" as="geometry"/>
                </mxCell>
                <mxCell id="64" value="" style="endArrow=none;html=1;rounded=0;" edge="1" parent="1" source="46" target="63">
                    <mxGeometry width="50" height="50" relative="1" as="geometry">
                        <mxPoint x="75" y="-220" as="sourcePoint"/>
                        <mxPoint x="125" y="-270" as="targetPoint"/>
                    </mxGeometry>
                </mxCell>
                <mxCell id="65" value="" style="endArrow=none;html=1;rounded=0;" edge="1" parent="1" source="38" target="63">
                    <mxGeometry width="50" height="50" relative="1" as="geometry">
                        <mxPoint x="-195" y="-239" as="sourcePoint"/>
                        <mxPoint x="-63" y="-236" as="targetPoint"/>
                    </mxGeometry>
                </mxCell>
                <mxCell id="66" style="edgeStyle=none;shape=connector;rounded=0;orthogonalLoop=1;jettySize=auto;html=1;strokeColor=default;align=center;verticalAlign=middle;fontFamily=Helvetica;fontSize=11;fontColor=default;labelBackgroundColor=default;endArrow=none;entryX=0;entryY=0.5;entryDx=0;entryDy=0;" edge="1" parent="1" source="67" target="111">
                    <mxGeometry relative="1" as="geometry">
                        <mxPoint x="-150.00000000000045" y="350" as="targetPoint"/>
                    </mxGeometry>
                </mxCell>
                <mxCell id="67" value="Boeking" style="rounded=0;whiteSpace=wrap;html=1;" vertex="1" parent="1">
                    <mxGeometry x="-385" y="320" width="120" height="60" as="geometry"/>
                </mxCell>
                <mxCell id="68" value="&lt;u&gt;Boeking-nummer&lt;/u&gt;" style="ellipse;whiteSpace=wrap;html=1;align=center;direction=west;" vertex="1" parent="1">
                    <mxGeometry x="-285" y="240" width="100" height="40" as="geometry"/>
                </mxCell>
                <mxCell id="69" value="Totale prijs" style="ellipse;whiteSpace=wrap;html=1;align=center;direction=west;" vertex="1" parent="1">
                    <mxGeometry x="-340" y="440" width="100" height="40" as="geometry"/>
                </mxCell>
                <mxCell id="70" value="Bezienswaardigheid" style="rounded=0;whiteSpace=wrap;html=1;" vertex="1" parent="1">
                    <mxGeometry x="550" y="-700" width="120" height="60" as="geometry"/>
                </mxCell>
                <mxCell id="71" value="Naam" style="ellipse;whiteSpace=wrap;html=1;align=center;direction=west;" vertex="1" parent="1">
                    <mxGeometry x="680" y="-710" width="100" height="40" as="geometry"/>
                </mxCell>
                <mxCell id="72" value="Beschrijving" style="ellipse;whiteSpace=wrap;html=1;align=center;direction=west;" vertex="1" parent="1">
                    <mxGeometry x="675" y="-640" width="100" height="40" as="geometry"/>
                </mxCell>
                <mxCell id="73" value="Locatie" style="ellipse;whiteSpace=wrap;html=1;align=center;direction=west;" vertex="1" parent="1">
                    <mxGeometry x="605" y="-760" width="100" height="40" as="geometry"/>
                </mxCell>
                <mxCell id="74" value="" style="endArrow=none;html=1;rounded=0;" edge="1" parent="1" source="70" target="73">
                    <mxGeometry width="50" height="50" relative="1" as="geometry">
                        <mxPoint x="970" y="-655" as="sourcePoint"/>
                        <mxPoint x="1020" y="-705" as="targetPoint"/>
                    </mxGeometry>
                </mxCell>
                <mxCell id="75" value="" style="endArrow=none;html=1;rounded=0;" edge="1" parent="1" source="70" target="71">
                    <mxGeometry width="50" height="50" relative="1" as="geometry">
                        <mxPoint x="930" y="-673" as="sourcePoint"/>
                        <mxPoint x="1030" y="-695" as="targetPoint"/>
                    </mxGeometry>
                </mxCell>
                <mxCell id="76" value="" style="endArrow=none;html=1;rounded=0;" edge="1" parent="1" source="70" target="72">
                    <mxGeometry width="50" height="50" relative="1" as="geometry">
                        <mxPoint x="940" y="-663" as="sourcePoint"/>
                        <mxPoint x="1040" y="-685" as="targetPoint"/>
                    </mxGeometry>
                </mxCell>
                <mxCell id="77" value="" style="ellipse;whiteSpace=wrap;html=1;align=center;aspect=fixed;fillColor=none;strokeColor=none;resizable=0;perimeter=centerPerimeter;rotatable=0;allowArrows=0;points=[];outlineConnect=1;" vertex="1" parent="1">
                    <mxGeometry x="380" y="140" width="10" height="10" as="geometry"/>
                </mxCell>
                <mxCell id="78" value="&lt;u&gt;Route ID&lt;/u&gt;" style="ellipse;whiteSpace=wrap;html=1;align=center;" vertex="1" parent="1">
                    <mxGeometry x="35" y="-590" width="100" height="40" as="geometry"/>
                </mxCell>
                <mxCell id="79" style="edgeStyle=none;shape=connector;rounded=0;orthogonalLoop=1;jettySize=auto;html=1;entryX=1;entryY=1;entryDx=0;entryDy=0;strokeColor=default;align=center;verticalAlign=middle;fontFamily=Helvetica;fontSize=11;fontColor=default;labelBackgroundColor=default;endArrow=none;exitX=1;exitY=0.5;exitDx=0;exitDy=0;exitPerimeter=0;" edge="1" parent="1" source="87" target="84">
                    <mxGeometry relative="1" as="geometry"/>
                </mxCell>
                <mxCell id="80" value="Gast" style="whiteSpace=wrap;html=1;fontFamily=Helvetica;fontSize=11;fontColor=default;labelBackgroundColor=default;" vertex="1" parent="1">
                    <mxGeometry x="640" y="330" width="120" height="60" as="geometry"/>
                </mxCell>
                <mxCell id="81" style="edgeStyle=none;shape=connector;rounded=0;orthogonalLoop=1;jettySize=auto;html=1;entryX=0;entryY=0.5;entryDx=0;entryDy=0;strokeColor=default;align=center;verticalAlign=middle;fontFamily=Helvetica;fontSize=11;fontColor=default;labelBackgroundColor=default;endArrow=none;" edge="1" parent="1" source="82" target="70">
                    <mxGeometry relative="1" as="geometry"/>
                </mxCell>
                <mxCell id="82" value="heeft" style="shape=rhombus;perimeter=rhombusPerimeter;whiteSpace=wrap;html=1;align=center;" vertex="1" parent="1">
                    <mxGeometry x="345" y="-700" width="120" height="60" as="geometry"/>
                </mxCell>
                <mxCell id="83" style="edgeStyle=none;shape=connector;rounded=0;orthogonalLoop=1;jettySize=auto;html=1;entryX=0.5;entryY=1;entryDx=0;entryDy=0;strokeColor=default;align=center;verticalAlign=middle;fontFamily=Helvetica;fontSize=11;fontColor=default;labelBackgroundColor=default;endArrow=none;" edge="1" parent="1" source="84" target="3">
                    <mxGeometry relative="1" as="geometry"/>
                </mxCell>
                <mxCell id="84" value="D" style="ellipse;whiteSpace=wrap;html=1;fontFamily=Helvetica;fontSize=11;fontColor=default;labelBackgroundColor=default;" vertex="1" parent="1">
                    <mxGeometry x="405" y="140" width="30" height="30" as="geometry"/>
                </mxCell>
                <mxCell id="85" style="edgeStyle=none;shape=connector;rounded=0;orthogonalLoop=1;jettySize=auto;html=1;entryX=0.63;entryY=0.047;entryDx=0;entryDy=0;entryPerimeter=0;strokeColor=default;align=center;verticalAlign=middle;fontFamily=Helvetica;fontSize=11;fontColor=default;labelBackgroundColor=default;endArrow=none;" edge="1" parent="1" source="88" target="7">
                    <mxGeometry relative="1" as="geometry"/>
                </mxCell>
                <mxCell id="86" value="" style="edgeStyle=none;shape=connector;rounded=0;orthogonalLoop=1;jettySize=auto;html=1;entryX=1;entryY=0.5;entryDx=0;entryDy=0;strokeColor=default;align=center;verticalAlign=middle;fontFamily=Helvetica;fontSize=11;fontColor=default;labelBackgroundColor=default;endArrow=none;entryPerimeter=0;" edge="1" parent="1" source="80" target="87">
                    <mxGeometry relative="1" as="geometry">
                        <mxPoint x="658" y="330" as="sourcePoint"/>
                        <mxPoint x="431" y="166" as="targetPoint"/>
                    </mxGeometry>
                </mxCell>
                <mxCell id="87" value="" style="shape=requiredInterface;html=1;verticalLabelPosition=bottom;sketch=0;fontFamily=Helvetica;fontSize=11;fontColor=default;labelBackgroundColor=default;rotation=45;" vertex="1" parent="1">
                    <mxGeometry x="480" y="190" width="10" height="20" as="geometry"/>
                </mxCell>
                <mxCell id="88" value="" style="shape=requiredInterface;html=1;verticalLabelPosition=bottom;sketch=0;fontFamily=Helvetica;fontSize=11;fontColor=default;labelBackgroundColor=default;direction=west;rotation=-30;" vertex="1" parent="1">
                    <mxGeometry x="355" y="190" width="10" height="20" as="geometry"/>
                </mxCell>
                <mxCell id="89" value="" style="endArrow=none;html=1;rounded=0;entryX=0;entryY=1;entryDx=0;entryDy=0;" edge="1" parent="1" target="2">
                    <mxGeometry width="50" height="50" relative="1" as="geometry">
                        <mxPoint x="90" y="-590" as="sourcePoint"/>
                        <mxPoint x="610" y="-590" as="targetPoint"/>
                    </mxGeometry>
                </mxCell>
                <mxCell id="90" value="&lt;u&gt;GastID&lt;/u&gt;" style="ellipse;whiteSpace=wrap;html=1;align=center;" vertex="1" parent="1">
                    <mxGeometry x="720" y="250" width="100" height="40" as="geometry"/>
                </mxCell>
                <mxCell id="91" value="" style="edgeStyle=none;shape=connector;rounded=0;orthogonalLoop=1;jettySize=auto;html=1;entryX=1;entryY=0.5;entryDx=0;entryDy=0;entryPerimeter=0;strokeColor=default;align=center;verticalAlign=middle;fontFamily=Helvetica;fontSize=11;fontColor=default;labelBackgroundColor=default;endArrow=none;" edge="1" parent="1" source="84" target="88">
                    <mxGeometry relative="1" as="geometry">
                        <mxPoint x="408" y="164" as="sourcePoint"/>
                        <mxPoint x="193" y="323" as="targetPoint"/>
                    </mxGeometry>
                </mxCell>
                <mxCell id="92" value="Naam" style="ellipse;whiteSpace=wrap;html=1;align=center;" vertex="1" parent="1">
                    <mxGeometry x="790" y="310" width="100" height="40" as="geometry"/>
                </mxCell>
                <mxCell id="93" value="" style="endArrow=none;html=1;rounded=0;entryX=0.925;entryY=1.033;entryDx=0;entryDy=0;entryPerimeter=0;exitX=0.44;exitY=-0.05;exitDx=0;exitDy=0;exitPerimeter=0;" edge="1" parent="1" source="27" target="2">
                    <mxGeometry width="50" height="50" relative="1" as="geometry">
                        <mxPoint x="560" y="-540" as="sourcePoint"/>
                        <mxPoint x="610" y="-590" as="targetPoint"/>
                    </mxGeometry>
                </mxCell>
                <mxCell id="94" value="Voornaam" style="ellipse;whiteSpace=wrap;html=1;align=center;" vertex="1" parent="1">
                    <mxGeometry x="790" y="390" width="100" height="40" as="geometry"/>
                </mxCell>
                <mxCell id="95" value="" style="endArrow=none;html=1;rounded=0;entryX=1;entryY=0.5;entryDx=0;entryDy=0;exitX=0;exitY=0.5;exitDx=0;exitDy=0;" edge="1" parent="1" source="82" target="2">
                    <mxGeometry width="50" height="50" relative="1" as="geometry">
                        <mxPoint x="570" y="-510" as="sourcePoint"/>
                        <mxPoint x="620" y="-560" as="targetPoint"/>
                    </mxGeometry>
                </mxCell>
                <mxCell id="96" style="edgeStyle=none;shape=connector;rounded=0;orthogonalLoop=1;jettySize=auto;html=1;entryX=0.388;entryY=1;entryDx=0;entryDy=0;entryPerimeter=0;strokeColor=default;align=center;verticalAlign=middle;fontFamily=Helvetica;fontSize=11;fontColor=default;labelBackgroundColor=default;endArrow=none;" edge="1" parent="1" source="80" target="90">
                    <mxGeometry relative="1" as="geometry"/>
                </mxCell>
                <mxCell id="97" value="Naam" style="ellipse;whiteSpace=wrap;html=1;align=center;" vertex="1" parent="1">
                    <mxGeometry x="-65" y="480" width="100" height="40" as="geometry"/>
                </mxCell>
                <mxCell id="98" value="Geboortedatum" style="ellipse;whiteSpace=wrap;html=1;align=center;" vertex="1" parent="1">
                    <mxGeometry x="640" y="410" width="100" height="40" as="geometry"/>
                </mxCell>
                <mxCell id="99" style="edgeStyle=none;shape=connector;rounded=0;orthogonalLoop=1;jettySize=auto;html=1;entryX=0.096;entryY=0.7;entryDx=0;entryDy=0;entryPerimeter=0;strokeColor=default;align=center;verticalAlign=middle;fontFamily=Helvetica;fontSize=11;fontColor=default;labelBackgroundColor=default;endArrow=none;" edge="1" parent="1" source="80" target="94">
                    <mxGeometry relative="1" as="geometry"/>
                </mxCell>
                <mxCell id="100" style="edgeStyle=none;shape=connector;rounded=0;orthogonalLoop=1;jettySize=auto;html=1;entryX=0.324;entryY=0.06;entryDx=0;entryDy=0;entryPerimeter=0;strokeColor=default;align=center;verticalAlign=middle;fontFamily=Helvetica;fontSize=11;fontColor=default;labelBackgroundColor=default;endArrow=none;" edge="1" parent="1" source="7" target="102">
                    <mxGeometry relative="1" as="geometry"/>
                </mxCell>
                <mxCell id="101" style="edgeStyle=none;shape=connector;rounded=0;orthogonalLoop=1;jettySize=auto;html=1;entryX=0.08;entryY=0.68;entryDx=0;entryDy=0;entryPerimeter=0;strokeColor=default;align=center;verticalAlign=middle;fontFamily=Helvetica;fontSize=11;fontColor=default;labelBackgroundColor=default;endArrow=none;" edge="1" parent="1" source="80" target="92">
                    <mxGeometry relative="1" as="geometry"/>
                </mxCell>
                <mxCell id="102" value="Voornaam" style="ellipse;whiteSpace=wrap;html=1;align=center;" vertex="1" parent="1">
                    <mxGeometry x="260" y="450" width="100" height="40" as="geometry"/>
                </mxCell>
                <mxCell id="103" style="edgeStyle=none;shape=connector;rounded=0;orthogonalLoop=1;jettySize=auto;html=1;entryX=0.809;entryY=-0.036;entryDx=0;entryDy=0;entryPerimeter=0;strokeColor=default;align=center;verticalAlign=middle;fontFamily=Helvetica;fontSize=11;fontColor=default;labelBackgroundColor=default;endArrow=none;" edge="1" parent="1" source="43" target="2">
                    <mxGeometry relative="1" as="geometry"/>
                </mxCell>
                <mxCell id="104" value="Geboortedatum" style="ellipse;whiteSpace=wrap;html=1;align=center;" vertex="1" parent="1">
                    <mxGeometry x="35" y="470" width="100" height="40" as="geometry"/>
                </mxCell>
                <mxCell id="105" value="&lt;u&gt;BezienswaardigheidID&lt;/u&gt;" style="ellipse;whiteSpace=wrap;html=1;align=center;direction=west;" vertex="1" parent="1">
                    <mxGeometry x="500" y="-610" width="150" height="40" as="geometry"/>
                </mxCell>
                <mxCell id="106" style="edgeStyle=none;shape=connector;rounded=0;orthogonalLoop=1;jettySize=auto;html=1;entryX=0.366;entryY=0.993;entryDx=0;entryDy=0;entryPerimeter=0;strokeColor=default;align=center;verticalAlign=middle;fontFamily=Helvetica;fontSize=11;fontColor=default;labelBackgroundColor=default;endArrow=none;" edge="1" parent="1" source="105" target="70">
                    <mxGeometry relative="1" as="geometry"/>
                </mxCell>
                <mxCell id="107" style="edgeStyle=none;shape=connector;rounded=0;orthogonalLoop=1;jettySize=auto;html=1;strokeColor=default;align=center;verticalAlign=middle;fontFamily=Helvetica;fontSize=11;fontColor=default;labelBackgroundColor=default;endArrow=none;" edge="1" parent="1" source="108" target="46">
                    <mxGeometry relative="1" as="geometry"/>
                </mxCell>
                <mxCell id="108" value="Heeft" style="shape=rhombus;perimeter=rhombusPerimeter;whiteSpace=wrap;html=1;align=center;" vertex="1" parent="1">
                    <mxGeometry x="-305" y="-80" width="120" height="60" as="geometry"/>
                </mxCell>
                <mxCell id="109" style="edgeStyle=none;shape=connector;rounded=0;orthogonalLoop=1;jettySize=auto;html=1;strokeColor=default;align=center;verticalAlign=middle;fontFamily=Helvetica;fontSize=11;fontColor=default;labelBackgroundColor=default;endArrow=none;" edge="1" parent="1" target="14">
                    <mxGeometry relative="1" as="geometry">
                        <mxPoint x="-650.4641084374005" y="-5.565472253566213" as="sourcePoint"/>
                    </mxGeometry>
                </mxCell>
                <mxCell id="110" style="edgeStyle=none;shape=connector;rounded=0;orthogonalLoop=1;jettySize=auto;html=1;strokeColor=default;align=center;verticalAlign=middle;fontFamily=Helvetica;fontSize=11;fontColor=default;labelBackgroundColor=default;endArrow=none;" edge="1" parent="1" source="111" target="7">
                    <mxGeometry relative="1" as="geometry"/>
                </mxCell>
                <mxCell id="111" value="Boekt" style="rhombus;whiteSpace=wrap;html=1;fontFamily=Helvetica;fontSize=11;fontColor=default;labelBackgroundColor=default;" vertex="1" parent="1">
                    <mxGeometry x="-145" y="320" width="80" height="60" as="geometry"/>
                </mxCell>
                <mxCell id="112" style="edgeStyle=none;shape=connector;rounded=0;orthogonalLoop=1;jettySize=auto;html=1;entryX=0;entryY=0.5;entryDx=0;entryDy=0;strokeColor=default;align=center;verticalAlign=middle;fontFamily=Helvetica;fontSize=11;fontColor=default;labelBackgroundColor=default;endArrow=none;" edge="1" parent="1" source="14" target="108">
                    <mxGeometry relative="1" as="geometry"/>
                </mxCell>
                <mxCell id="113" value="" style="endArrow=none;html=1;rounded=0;exitX=0.75;exitY=0;exitDx=0;exitDy=0;" edge="1" parent="1" source="67">
                    <mxGeometry width="50" height="50" relative="1" as="geometry">
                        <mxPoint x="-140" y="220" as="sourcePoint"/>
                        <mxPoint x="-250" y="280" as="targetPoint"/>
                    </mxGeometry>
                </mxCell>
                <mxCell id="114" value="" style="endArrow=none;html=1;rounded=0;entryX=0.622;entryY=1.037;entryDx=0;entryDy=0;entryPerimeter=0;" edge="1" parent="1" source="69" target="67">
                    <mxGeometry width="50" height="50" relative="1" as="geometry">
                        <mxPoint x="-140" y="220" as="sourcePoint"/>
                        <mxPoint x="-90" y="170" as="targetPoint"/>
                    </mxGeometry>
                </mxCell>
                <mxCell id="115" value="Kamernummer" style="ellipse;whiteSpace=wrap;html=1;align=center;fontStyle=4;" vertex="1" parent="1">
                    <mxGeometry x="-720" y="-10" width="100" height="40" as="geometry"/>
                </mxCell>
                <mxCell id="116" style="edgeStyle=none;shape=connector;rounded=0;orthogonalLoop=1;jettySize=auto;html=1;entryX=0.5;entryY=1;entryDx=0;entryDy=0;strokeColor=default;align=center;verticalAlign=middle;fontFamily=Helvetica;fontSize=11;fontColor=default;labelBackgroundColor=default;endArrow=none;" edge="1" parent="1" source="118" target="2">
                    <mxGeometry relative="1" as="geometry"/>
                </mxCell>
                <mxCell id="117" style="edgeStyle=none;shape=connector;rounded=0;orthogonalLoop=1;jettySize=auto;html=1;entryX=0.5;entryY=0;entryDx=0;entryDy=0;strokeColor=default;align=center;verticalAlign=middle;fontFamily=Helvetica;fontSize=11;fontColor=default;labelBackgroundColor=default;endArrow=none;" edge="1" parent="1" source="118" target="38">
                    <mxGeometry relative="1" as="geometry"/>
                </mxCell>
                <mxCell id="118" value="vaart deze" style="rhombus;whiteSpace=wrap;html=1;fontFamily=Helvetica;fontSize=11;fontColor=default;labelBackgroundColor=default;" vertex="1" parent="1">
                    <mxGeometry x="160" y="-510" width="80" height="50" as="geometry"/>
                </mxCell>
                <mxCell id="119" value="Behoort tot" style="shape=rhombus;perimeter=rhombusPerimeter;whiteSpace=wrap;html=1;align=center;" vertex="1" parent="1">
                    <mxGeometry x="60" y="-100" width="120" height="60" as="geometry"/>
                </mxCell>
                <mxCell id="120" value="" style="endArrow=none;html=1;rounded=0;entryX=0.413;entryY=0.993;entryDx=0;entryDy=0;entryPerimeter=0;" edge="1" parent="1" target="38">
                    <mxGeometry width="50" height="50" relative="1" as="geometry">
                        <mxPoint x="135" y="-90" as="sourcePoint"/>
                        <mxPoint x="185" y="-140" as="targetPoint"/>
                    </mxGeometry>
                </mxCell>
                <mxCell id="121" value="1 van de twee&lt;div&gt;nog niet zeker&lt;/div&gt;" style="text;html=1;align=center;verticalAlign=middle;resizable=0;points=[];autosize=1;strokeColor=none;fillColor=none;fontFamily=Helvetica;fontSize=11;fontColor=default;labelBackgroundColor=default;" vertex="1" parent="1">
                    <mxGeometry x="55" y="-150" width="90" height="40" as="geometry"/>
                </mxCell>
                <mxCell id="122" style="edgeStyle=none;shape=connector;rounded=0;orthogonalLoop=1;jettySize=auto;html=1;entryX=0;entryY=0;entryDx=0;entryDy=0;strokeColor=default;align=center;verticalAlign=middle;fontFamily=Helvetica;fontSize=11;fontColor=default;labelBackgroundColor=default;endArrow=none;" edge="1" parent="1" source="119" target="3">
                    <mxGeometry relative="1" as="geometry"/>
                </mxCell>
                <mxCell id="123" value="geen cordinaliteit" style="text;html=1;align=center;verticalAlign=middle;resizable=0;points=[];autosize=1;strokeColor=none;fillColor=none;" vertex="1" parent="1">
                    <mxGeometry x="435" y="118" width="110" height="30" as="geometry"/>
                </mxCell>
                <mxCell id="124" style="edgeStyle=none;shape=connector;rounded=0;orthogonalLoop=1;jettySize=auto;html=1;strokeColor=default;align=center;verticalAlign=middle;fontFamily=Helvetica;fontSize=11;fontColor=default;labelBackgroundColor=default;endArrow=none;" edge="1" parent="1" source="125" target="3">
                    <mxGeometry relative="1" as="geometry"/>
                </mxCell>
                <mxCell id="125" value="PassagiersID" style="ellipse;whiteSpace=wrap;html=1;align=center;" vertex="1" parent="1">
                    <mxGeometry x="505" y="10" width="100" height="40" as="geometry"/>
                </mxCell>
                <mxCell id="126" value="(1,N)" style="text;html=1;align=center;verticalAlign=middle;resizable=0;points=[];autosize=1;strokeColor=none;fillColor=none;fontFamily=Helvetica;fontSize=11;fontColor=default;labelBackgroundColor=default;" vertex="1" parent="1">
                    <mxGeometry x="495" y="-705" width="50" height="30" as="geometry"/>
                </mxCell>
                <mxCell id="127" value="(0,M)" style="text;html=1;align=center;verticalAlign=middle;resizable=0;points=[];autosize=1;strokeColor=none;fillColor=none;fontFamily=Helvetica;fontSize=11;fontColor=default;labelBackgroundColor=default;" vertex="1" parent="1">
                    <mxGeometry x="270" y="-705" width="50" height="30" as="geometry"/>
                </mxCell>
                <mxCell id="128" value="(0,N)" style="text;html=1;align=center;verticalAlign=middle;resizable=0;points=[];autosize=1;strokeColor=none;fillColor=none;fontFamily=Helvetica;fontSize=11;fontColor=default;labelBackgroundColor=default;" vertex="1" parent="1">
                    <mxGeometry x="155" y="-642" width="50" height="30" as="geometry"/>
                </mxCell>
                <mxCell id="129" value="(1,1)" style="text;html=1;align=center;verticalAlign=middle;resizable=0;points=[];autosize=1;strokeColor=none;fillColor=none;fontFamily=Helvetica;fontSize=11;fontColor=default;labelBackgroundColor=default;" vertex="1" parent="1">
                    <mxGeometry x="145" y="-312" width="50" height="30" as="geometry"/>
                </mxCell>
                <mxCell id="130" value="(1,1)" style="text;html=1;align=center;verticalAlign=middle;resizable=0;points=[];autosize=1;strokeColor=none;fillColor=none;fontFamily=Helvetica;fontSize=11;fontColor=default;labelBackgroundColor=default;" vertex="1" parent="1">
                    <mxGeometry x="55" y="-282" width="50" height="30" as="geometry"/>
                </mxCell>
                <mxCell id="131" value="(0,N)" style="text;html=1;align=center;verticalAlign=middle;resizable=0;points=[];autosize=1;strokeColor=none;fillColor=none;fontFamily=Helvetica;fontSize=11;fontColor=default;labelBackgroundColor=default;" vertex="1" parent="1">
                    <mxGeometry x="-185" y="-280" width="50" height="30" as="geometry"/>
                </mxCell>
            </root>
        </mxGraphModel>
    </diagram>
</mxfile>